<?xml version="1.0" encoding="utf-8"?>
<!-- Generator: Adobe Illustrator 21.0.0, SVG Export Plug-In . SVG Version: 6.00 Build 0)  -->
<svg version="1.1" xmlns="http://www.w3.org/2000/svg" xmlns:xlink="http://www.w3.org/1999/xlink" x="0px" y="0px"
	 viewBox="0 0 5000 5000" style="enable-background:new 0 0 5000 5000;" xml:space="preserve">
<style type="text/css">
	.st0{opacity:0.4;fill:#D1D3D4;}
	.st1{opacity:0.4;fill:#E6E7E8;}
	.st2{fill:none;}
	.st3{fill:#7ADDD7;}
	.st4{fill:#5B5487;}
	.st5{fill:#FFFFFF;}
	.st6{fill:#F48CA5;}
	.st7{fill:#F1F2F2;}
	.st8{fill:#FFE368;}
	.st9{fill:#A7A9AC;}
	.st10{fill:#F4F4F4;}
	.st11{fill:#BCBEC0;}
</style>
<g id="Layer_3">
	<g>
		<path class="st0" d="M1181.7,2459.2c-27.2,0-54.5-9.6-76.3-29.1c-47.2-42.2-51.3-114.6-9.1-161.8L2271.8,952.4
			c42.2-47.2,114.6-51.3,161.8-9.1c47.2,42.2,51.3,114.6,9.1,161.8L1267.2,2421C1244.6,2446.3,1213.2,2459.2,1181.7,2459.2z"/>
		<path class="st1" d="M1626.8,2305.8c-27.2,0-54.5-9.6-76.3-29.1c-47.2-42.2-51.3-114.6-9.1-161.8L2649.7,874.1
			c42.2-47.2,114.6-51.3,161.8-9.1c47.2,42.2,51.3,114.6,9.1,161.8L1712.3,2267.5C1689.7,2292.9,1658.3,2305.8,1626.8,2305.8z"/>
		<path class="st0" d="M1457.5,2838.8c-27.2,0-54.5-9.6-76.3-29.1c-47.2-42.2-51.3-114.6-9.1-161.8l1003.4-1123.2
			c42.2-47.2,114.6-51.3,161.8-9.1c47.2,42.2,51.3,114.6,9.1,161.8L1543,2800.5C1520.4,2825.8,1489,2838.8,1457.5,2838.8z"/>
		<path class="st1" d="M1831.9,2764.4c-27.2,0-54.5-9.6-76.3-29.1c-47.2-42.2-51.3-114.6-9.1-161.8l832.1-931.5
			c42.2-47.2,114.6-51.3,161.8-9.1c47.2,42.2,51.3,114.6,9.1,161.8l-832.1,931.5C1894.8,2751.5,1863.4,2764.4,1831.9,2764.4z"/>
		<path class="st0" d="M1881.3,3053.1c-27.2,0-54.5-9.6-76.3-29.1c-47.2-42.2-51.3-114.6-9.1-161.8l1303.4-1459
			c42.2-47.2,114.6-51.3,161.8-9.1c47.2,42.2,51.3,114.6,9.1,161.8l-1303.4,1459C1944.2,3040.2,1912.8,3053.1,1881.3,3053.1z"/>
		<path class="st1" d="M2137.7,3110.9c-27.2,0-54.5-9.6-76.3-29.1c-47.2-42.2-51.3-114.6-9.1-161.8l1008.2-1128.6
			c42.2-47.2,114.6-51.3,161.8-9.1c47.2,42.2,51.3,114.6,9.1,161.8L2223.2,3072.6C2200.6,3098,2169.2,3110.9,2137.7,3110.9z"/>
	</g>
	<g>
		<path class="st2" d="M2399.6,3218.7h8.9c2.9-7.9,6.8-15.6,11.5-22.8L2399.6,3218.7z"/>
		<path class="st0" d="M2430.3,3182.3l748.8-839.7c5.3-5.9,11-11.2,17.2-15.7l437.7-490c42.2-47.2,38.1-119.7-9.1-161.8
			c-47.2-42.2-119.7-38.1-161.8,9.1L2163.2,3139.3c-20.3,22.7-29.8,51.2-29.1,79.4h265.5l20.4-22.8
			C2423.1,3191.2,2426.5,3186.7,2430.3,3182.3z"/>
		<path class="st1" d="M3350.2,2495.2c42.1-47.2,38-119.7-9.3-161.8c-41.3-36.8-101.9-38.3-144.7-6.5l-776.3,869
			c-4.8,7.3-8.6,14.9-11.5,22.8h296.6L3350.2,2495.2z"/>
		<path class="st0" d="M3179.1,2342.6l-748.8,839.7c-3.8,4.3-7.3,8.8-10.4,13.5l776.3-869
			C3190.2,2331.4,3184.4,2336.7,3179.1,2342.6z"/>
		<path class="st1" d="M3179.1,2342.6l-748.8,839.7c-3.8,4.3-7.3,8.8-10.4,13.5l776.3-869
			C3190.2,2331.4,3184.4,2336.7,3179.1,2342.6z"/>
	</g>
</g>
<g id="Layer_1">
	<g>
		<g>
			<g>
				<path class="st3" d="M1240.2,3177.4c0,19.8-16.1,35.9-35.9,35.9H788.1c-19.8,0-35.9-16.1-35.9-35.9v-553.1
					c0-19.8,16.1-35.9,35.9-35.9h416.2c19.8,0,35.9,16.1,35.9,35.9V3177.4z"/>
				<path class="st4" d="M1204.3,3220.8H788.1c-23.9,0-43.4-19.5-43.4-43.4v-553.1c0-23.9,19.5-43.4,43.4-43.4h416.2
					c23.9,0,43.4,19.5,43.4,43.4v553.1C1247.7,3201.4,1228.2,3220.8,1204.3,3220.8z M788.1,2595.9c-15.7,0-28.4,12.7-28.4,28.4
					v553.1c0,15.7,12.7,28.4,28.4,28.4h416.2c15.7,0,28.4-12.7,28.4-28.4v-553.1c0-15.7-12.7-28.4-28.4-28.4H788.1z"/>
			</g>
			<g>
				<path class="st5" d="M1214.5,3144.8c0,17.8-14.4,32.3-32.1,32.3H810c-17.8,0-32.1-14.5-32.1-32.3v-497
					c0-17.8,14.4-32.3,32.1-32.3h372.3c17.7,0,32.1,14.4,32.1,32.3V3144.8z"/>
				<path class="st4" d="M1182.3,3184.6H810c-21.9,0-39.6-17.8-39.6-39.8v-497c0-21.9,17.8-39.8,39.6-39.8h372.3
					c21.9,0,39.6,17.8,39.6,39.8v497C1222,3166.7,1204.2,3184.6,1182.3,3184.6z M810,2623c-13.6,0-24.6,11.1-24.6,24.8v497
					c0,13.7,11.1,24.8,24.6,24.8h372.3c13.6,0,24.6-11.1,24.6-24.8v-497c0-13.7-11-24.8-24.6-24.8H810z"/>
			</g>
			<g>
				<path class="st6" d="M996.2,2690.8c-31.6-25.7-64.5-0.2-54.3,36.1c8.6,30.7,54.3,36.5,54.3,54.3c0-17.8,45.7-23.6,54.3-54.3
					C1060.7,2690.6,1027.7,2665.1,996.2,2690.8z"/>
				<path class="st4" d="M996.2,2788.7c-4.1,0-7.5-3.4-7.5-7.5c0-3.8-9-9.1-16.9-13.8c-14.1-8.4-31.7-18.8-37.2-38.5
					c-4.3-15.5-2.1-30.6,6.2-41.6c7-9.2,17.6-14.5,29.2-14.5c8.8,0,17.7,3,26.1,8.6c8.4-5.7,17.3-8.6,26.1-8.6
					c11.6,0,22.2,5.3,29.2,14.5c8.3,11,10.6,26.1,6.2,41.6c-5.5,19.7-23.1,30.1-37.2,38.5c-7.9,4.7-16.9,10-16.9,13.8
					C1003.7,2785.3,1000.3,2788.7,996.2,2788.7z M970.1,2687.8c-6.9,0-13.1,3-17.3,8.6c-5.4,7.2-6.8,17.6-3.8,28.5
					c3.9,13.9,18,22.2,30.4,29.6c6.2,3.7,12.2,7.3,16.7,11.4c4.5-4.2,10.5-7.8,16.7-11.4c12.4-7.4,26.5-15.7,30.4-29.6
					c3.1-10.9,1.7-21.3-3.8-28.5c-4.2-5.5-10.3-8.6-17.3-8.6c-6.9,0-14.3,3-21.3,8.8c-2.8,2.2-6.7,2.2-9.5,0
					C984.4,2690.9,977,2687.8,970.1,2687.8z"/>
			</g>
			<g>
				<g>
					<path class="st7" d="M1099,2555.4h-34.9c0-37.5-30.4-68-67.9-68c-37.5,0-68,30.4-68,68h-34.9c-16.9,0-30.5,13.7-30.5,30.5v32.8
						c0,16.9,13.7,30.5,30.5,30.5H1099c16.9,0,30.5-13.7,30.5-30.5v-32.8C1129.5,2569,1115.8,2555.4,1099,2555.4z"/>
					<path class="st4" d="M1099,2656.7H893.4c-21,0-38-17.1-38-38v-32.8c0-21,17.1-38,38-38h27.7c3.8-38.1,36-68,75.1-68
						c39.1,0,71.3,29.9,75.1,68h27.7c21,0,38,17.1,38,38v32.8C1137,2639.7,1119.9,2656.7,1099,2656.7z M893.4,2562.9
						c-12.7,0-23,10.3-23,23v32.8c0,12.7,10.3,23,23,23H1099c12.7,0,23-10.3,23-23v-32.8c0-12.7-10.3-23-23-23h-34.9
						c-4.1,0-7.5-3.4-7.5-7.5c0-33.3-27.1-60.5-60.4-60.5c-33.3,0-60.5,27.1-60.5,60.5c0,4.1-3.4,7.5-7.5,7.5H893.4z"/>
				</g>
				<g>
					<path class="st7" d="M1016.5,2536.8c0,11.2-9.1,20.3-20.3,20.3c-11.2,0-20.3-9.1-20.3-20.3s9.1-20.3,20.3-20.3
						C1007.4,2516.4,1016.5,2525.5,1016.5,2536.8z"/>
					<path class="st4" d="M996.2,2564.6c-15.3,0-27.8-12.5-27.8-27.8c0-15.3,12.5-27.8,27.8-27.8c15.4,0,27.8,12.5,27.8,27.8
						C1024,2552.1,1011.5,2564.6,996.2,2564.6z M996.2,2523.9c-7.1,0-12.8,5.8-12.8,12.8c0,7.1,5.8,12.8,12.8,12.8
						c7.1,0,12.8-5.8,12.8-12.8C1009,2529.7,1003.3,2523.9,996.2,2523.9z"/>
				</g>
			</g>
			<g>
				<g>
					<ellipse class="st7" cx="869.8" cy="2921.3" rx="21.4" ry="21.4"/>
					<path class="st4" d="M869.8,2950.2c-15.9,0-28.9-13-28.9-28.9c0-15.9,13-28.9,28.9-28.9c15.9,0,28.9,13,28.9,28.9
						C898.7,2937.2,885.7,2950.2,869.8,2950.2z M869.8,2907.5c-7.7,0-13.9,6.2-13.9,13.9s6.2,13.9,13.9,13.9
						c7.7,0,13.9-6.2,13.9-13.9S877.4,2907.5,869.8,2907.5z"/>
				</g>
				<g>
					<ellipse class="st3" cx="869.8" cy="3014.1" rx="21.4" ry="21.4"/>
					<path class="st4" d="M869.8,3043c-15.9,0-28.9-13-28.9-28.9c0-15.9,13-28.9,28.9-28.9c15.9,0,28.9,13,28.9,28.9
						C898.7,3030.1,885.7,3043,869.8,3043z M869.8,3000.3c-7.7,0-13.9,6.2-13.9,13.9c0,7.7,6.2,13.9,13.9,13.9
						c7.7,0,13.9-6.2,13.9-13.9C883.7,3006.5,877.4,3000.3,869.8,3000.3z"/>
				</g>
				<g>
					<ellipse class="st6" cx="869.8" cy="3107" rx="21.4" ry="21.4"/>
					<path class="st4" d="M869.8,3135.8c-15.9,0-28.9-13-28.9-28.9c0-15.9,13-28.9,28.9-28.9c15.9,0,28.9,13,28.9,28.9
						C898.7,3122.9,885.7,3135.8,869.8,3135.8z M869.8,3093.1c-7.7,0-13.9,6.2-13.9,13.9c0,7.6,6.2,13.9,13.9,13.9
						c7.7,0,13.9-6.2,13.9-13.9C883.7,3099.3,877.4,3093.1,869.8,3093.1z"/>
				</g>
				<g>
					<path class="st4" d="M1066.6,2911.5h-98.7c-4.1,0-7.5-3.4-7.5-7.5s3.4-7.5,7.5-7.5h98.7c4.1,0,7.5,3.4,7.5,7.5
						S1070.7,2911.5,1066.6,2911.5z"/>
					<path class="st4" d="M1135.7,2911.5h-36.5c-4.1,0-7.5-3.4-7.5-7.5s3.4-7.5,7.5-7.5h36.5c4.1,0,7.5,3.4,7.5,7.5
						S1139.8,2911.5,1135.7,2911.5z"/>
					<path class="st4" d="M1008.6,2943.1h-40.7c-4.1,0-7.5-3.4-7.5-7.5s3.4-7.5,7.5-7.5h40.7c4.1,0,7.5,3.4,7.5,7.5
						S1012.7,2943.1,1008.6,2943.1z"/>
					<path class="st4" d="M1073.8,2943.1h-31.7c-4.1,0-7.5-3.4-7.5-7.5s3.4-7.5,7.5-7.5h31.7c4.1,0,7.5,3.4,7.5,7.5
						S1078,2943.1,1073.8,2943.1z"/>
					<path class="st4" d="M1135.7,2943.1h-27.5c-4.1,0-7.5-3.4-7.5-7.5s3.4-7.5,7.5-7.5h27.5c4.1,0,7.5,3.4,7.5,7.5
						S1139.8,2943.1,1135.7,2943.1z"/>
				</g>
				<g>
					<path class="st4" d="M1066.6,3002.6h-98.7c-4.1,0-7.5-3.4-7.5-7.5s3.4-7.5,7.5-7.5h98.7c4.1,0,7.5,3.4,7.5,7.5
						S1070.7,3002.6,1066.6,3002.6z"/>
					<path class="st4" d="M1135.7,3002.6h-36.5c-4.1,0-7.5-3.4-7.5-7.5s3.4-7.5,7.5-7.5h36.5c4.1,0,7.5,3.4,7.5,7.5
						S1139.8,3002.6,1135.7,3002.6z"/>
					<path class="st4" d="M1008.6,3034.2h-40.7c-4.1,0-7.5-3.4-7.5-7.5s3.4-7.5,7.5-7.5h40.7c4.1,0,7.5,3.4,7.5,7.5
						S1012.7,3034.2,1008.6,3034.2z"/>
					<path class="st4" d="M1073.8,3034.2h-31.7c-4.1,0-7.5-3.4-7.5-7.5s3.4-7.5,7.5-7.5h31.7c4.1,0,7.5,3.4,7.5,7.5
						S1078,3034.2,1073.8,3034.2z"/>
					<path class="st4" d="M1135.7,3034.2h-27.5c-4.1,0-7.5-3.4-7.5-7.5s3.4-7.5,7.5-7.5h27.5c4.1,0,7.5,3.4,7.5,7.5
						S1139.8,3034.2,1135.7,3034.2z"/>
				</g>
				<g>
					<path class="st4" d="M1066.6,3093.1h-98.7c-4.1,0-7.5-3.4-7.5-7.5s3.4-7.5,7.5-7.5h98.7c4.1,0,7.5,3.4,7.5,7.5
						S1070.7,3093.1,1066.6,3093.1z"/>
					<path class="st4" d="M1135.7,3093.1h-36.5c-4.1,0-7.5-3.4-7.5-7.5s3.4-7.5,7.5-7.5h36.5c4.1,0,7.5,3.4,7.5,7.5
						S1139.8,3093.1,1135.7,3093.1z"/>
					<path class="st4" d="M1008.6,3124.6h-40.7c-4.1,0-7.5-3.4-7.5-7.5s3.4-7.5,7.5-7.5h40.7c4.1,0,7.5,3.4,7.5,7.5
						S1012.7,3124.6,1008.6,3124.6z"/>
					<path class="st4" d="M1073.8,3124.6h-31.7c-4.1,0-7.5-3.4-7.5-7.5s3.4-7.5,7.5-7.5h31.7c4.1,0,7.5,3.4,7.5,7.5
						S1078,3124.6,1073.8,3124.6z"/>
					<path class="st4" d="M1135.7,3124.6h-27.5c-4.1,0-7.5-3.4-7.5-7.5s3.4-7.5,7.5-7.5h27.5c4.1,0,7.5,3.4,7.5,7.5
						S1139.8,3124.6,1135.7,3124.6z"/>
				</g>
			</g>
			<rect x="848.4" y="2811.8" class="st8" width="302.9" height="51.9"/>
			<path class="st4" d="M1036.8,2629.8h-126c-4.1,0-7.5-3.4-7.5-7.5s3.4-7.5,7.5-7.5h126c4.1,0,7.5,3.4,7.5,7.5
				S1040.9,2629.8,1036.8,2629.8z"/>
			<path class="st4" d="M1093.1,2629.8h-31.7c-4.1,0-7.5-3.4-7.5-7.5s3.4-7.5,7.5-7.5h31.7c4.1,0,7.5,3.4,7.5,7.5
				S1097.3,2629.8,1093.1,2629.8z"/>
		</g>
	</g>
	<g>
		<path class="st4" d="M2537.7,1376.8h-232.8c-4.1,0-7.5-3.4-7.5-7.5c0-4.1,3.4-7.5,7.5-7.5h232.8c4.1,0,7.5,3.4,7.5,7.5
			C2545.2,1373.5,2541.8,1376.8,2537.7,1376.8z"/>
		<path class="st4" d="M2269.9,1376.8h-58.2c-4.1,0-7.5-3.4-7.5-7.5c0-4.1,3.4-7.5,7.5-7.5h58.2c4.1,0,7.5,3.4,7.5,7.5
			C2277.4,1373.5,2274.1,1376.8,2269.9,1376.8z"/>
	</g>
	<g>
		<path class="st4" d="M3610.2,2259.6h-232.8c-4.1,0-7.5-3.4-7.5-7.5s3.4-7.5,7.5-7.5h232.8c4.1,0,7.5,3.4,7.5,7.5
			S3614.3,2259.6,3610.2,2259.6z"/>
		<path class="st4" d="M3342.4,2259.6h-58.2c-4.1,0-7.5-3.4-7.5-7.5s3.4-7.5,7.5-7.5h58.2c4.1,0,7.5,3.4,7.5,7.5
			S3346.5,2259.6,3342.4,2259.6z"/>
	</g>
	<g>
		<path class="st4" d="M3610,2302.6h-132.1c-4.1,0-7.5-3.4-7.5-7.5s3.4-7.5,7.5-7.5H3610c4.1,0,7.5,3.4,7.5,7.5
			S3614.2,2302.6,3610,2302.6z"/>
		<path class="st4" d="M3662.9,2302.6h-33c-4.1,0-7.5-3.4-7.5-7.5s3.4-7.5,7.5-7.5h33c4.1,0,7.5,3.4,7.5,7.5
			S3667,2302.6,3662.9,2302.6z"/>
		<path class="st4" d="M3457.8,2302.6h-18.2c-4.1,0-7.5-3.4-7.5-7.5s3.4-7.5,7.5-7.5h18.2c4.1,0,7.5,3.4,7.5,7.5
			S3462,2302.6,3457.8,2302.6z"/>
	</g>
	<g>
		<path class="st4" d="M1091.5,1771.1H745.1c-4.1,0-7.5-3.4-7.5-7.5c0-4.1,3.4-7.5,7.5-7.5h346.4c4.1,0,7.5,3.4,7.5,7.5
			C1099,1767.7,1095.7,1771.1,1091.5,1771.1z"/>
		<path class="st4" d="M1030.1,1726.5h-34c-4.1,0-7.5-3.4-7.5-7.5c0-4.1,3.4-7.5,7.5-7.5h34c4.1,0,7.5,3.4,7.5,7.5
			C1037.6,1723.2,1034.3,1726.5,1030.1,1726.5z"/>
		<path class="st4" d="M1134.9,1726.5h-75.7c-4.1,0-7.5-3.4-7.5-7.5c0-4.1,3.4-7.5,7.5-7.5h75.7c4.1,0,7.5,3.4,7.5,7.5
			C1142.4,1723.2,1139,1726.5,1134.9,1726.5z"/>
	</g>
	<path class="st4" d="M3331,1686.5h-59.6c-4.1,0-7.5-3.4-7.5-7.5c0-4.1,3.4-7.5,7.5-7.5h59.6c4.1,0,7.5,3.4,7.5,7.5
		C3338.5,1683.1,3335.1,1686.5,3331,1686.5z"/>
	<path class="st4" d="M3971.9,2009.9h-59.6c-4.1,0-7.5-3.4-7.5-7.5s3.4-7.5,7.5-7.5h59.6c4.1,0,7.5,3.4,7.5,7.5
		S3976.1,2009.9,3971.9,2009.9z"/>
	<path class="st4" d="M3657.7,1282.6H3602c-4.1,0-7.5-3.4-7.5-7.5c0-4.1,3.4-7.5,7.5-7.5h55.7c4.1,0,7.5,3.4,7.5,7.5
		C3665.2,1279.3,3661.8,1282.6,3657.7,1282.6z"/>
	<path class="st4" d="M2182,2260h-55.7c-4.1,0-7.5-3.4-7.5-7.5s3.4-7.5,7.5-7.5h55.7c4.1,0,7.5,3.4,7.5,7.5S2186.2,2260,2182,2260z"
		/>
	<path class="st4" d="M2669.7,1150.3H2614c-4.1,0-7.5-3.4-7.5-7.5c0-4.1,3.4-7.5,7.5-7.5h55.7c4.1,0,7.5,3.4,7.5,7.5
		C2677.2,1146.9,2673.8,1150.3,2669.7,1150.3z"/>
	<path class="st4" d="M1700,2080.2c-2,0-3.9-0.8-5.3-2.2l-36.3-36.3c-1.4-1.4-2.2-3.3-2.2-5.3s0.8-3.9,2.2-5.3l36.3-36.3
		c1.4-1.4,3.3-2.2,5.3-2.2l0,0c2,0,3.9,0.8,5.3,2.2l36.3,36.3c2.9,2.9,2.9,7.7,0,10.6l-36.3,36.3
		C1703.8,2079.4,1701.9,2080.2,1700,2080.2z M1674.2,2036.3l25.7,25.7l25.7-25.7l-25.7-25.7L1674.2,2036.3z"/>
	<path class="st4" d="M2350.8,1638.2c-19,0-34.5-15.5-34.5-34.5s15.5-34.5,34.5-34.5c19,0,34.5,15.5,34.5,34.5
		S2369.8,1638.2,2350.8,1638.2z M2350.8,1584.2c-10.7,0-19.5,8.7-19.5,19.5s8.7,19.5,19.5,19.5c10.8,0,19.5-8.7,19.5-19.5
		S2361.6,1584.2,2350.8,1584.2z"/>
	<path class="st4" d="M4258,1958.2c-17.9,0-32.5-14.6-32.5-32.5s14.6-32.5,32.5-32.5s32.5,14.6,32.5,32.5S4275.9,1958.2,4258,1958.2
		z M4258,1908.2c-9.7,0-17.5,7.9-17.5,17.5c0,9.7,7.9,17.5,17.5,17.5s17.5-7.9,17.5-17.5C4275.5,1916,4267.6,1908.2,4258,1908.2z"/>
	<path class="st4" d="M833.6,2306.1c-17.9,0-32.5-14.6-32.5-32.5s14.6-32.5,32.5-32.5c17.9,0,32.5,14.6,32.5,32.5
		S851.5,2306.1,833.6,2306.1z M833.6,2256.1c-9.7,0-17.5,7.9-17.5,17.5c0,9.7,7.9,17.5,17.5,17.5c9.7,0,17.5-7.9,17.5-17.5
		C851.1,2263.9,843.2,2256.1,833.6,2256.1z"/>
	<g>
		<path class="st4" d="M1860.1,1375.7c-4.1,0-7.5-3.4-7.5-7.5v-53.3c0-4.1,3.4-7.5,7.5-7.5s7.5,3.4,7.5,7.5v53.3
			C1867.6,1372.3,1864.3,1375.7,1860.1,1375.7z"/>
		<path class="st4" d="M1886.8,1349h-53.3c-4.1,0-7.5-3.4-7.5-7.5c0-4.1,3.4-7.5,7.5-7.5h53.3c4.1,0,7.5,3.4,7.5,7.5
			C1894.3,1345.7,1890.9,1349,1886.8,1349z"/>
	</g>
	<g>
		<path class="st4" d="M3357.7,2036.6c-4.1,0-7.5-3.4-7.5-7.5v-53.3c0-4.1,3.4-7.5,7.5-7.5s7.5,3.4,7.5,7.5v53.3
			C3365.2,2033.2,3361.8,2036.6,3357.7,2036.6z"/>
		<path class="st4" d="M3384.3,2009.9H3331c-4.1,0-7.5-3.4-7.5-7.5s3.4-7.5,7.5-7.5h53.3c4.1,0,7.5,3.4,7.5,7.5
			S3388.5,2009.9,3384.3,2009.9z"/>
	</g>
	<g>
		<path class="st4" d="M1009.2,1947.4c-4.1,0-7.5-3.4-7.5-7.5v-53.3c0-4.1,3.4-7.5,7.5-7.5c4.1,0,7.5,3.4,7.5,7.5v53.3
			C1016.7,1944.1,1013.3,1947.4,1009.2,1947.4z"/>
		<path class="st4" d="M1035.9,1920.8L1035.9,1920.8l-53.3,0c-4.1,0-7.5-3.4-7.5-7.5c0-4.1,3.4-7.5,7.5-7.5l0,0l53.3,0
			c4.1,0,7.5,3.4,7.5,7.5S1040,1920.8,1035.9,1920.8z"/>
	</g>
	<g>
		<path class="st4" d="M4000.9,1520.5c-4.1,0-7.5-3.4-7.5-7.5v-53.3c0-4.1,3.4-7.5,7.5-7.5s7.5,3.4,7.5,7.5v53.3
			C4008.4,1517.1,4005,1520.5,4000.9,1520.5z"/>
		<path class="st4" d="M4027.5,1493.8L4027.5,1493.8l-53.3,0c-4.1,0-7.5-3.4-7.5-7.5s3.4-7.5,7.5-7.5l0,0l53.3,0
			c4.1,0,7.5,3.4,7.5,7.5C4035,1490.4,4031.7,1493.8,4027.5,1493.8z"/>
	</g>
	<path class="st4" d="M2874.6,1408.7c-2,0-3.9-0.8-5.3-2.2l-36.3-36.3c-1.4-1.4-2.2-3.3-2.2-5.3c0-2,0.8-3.9,2.2-5.3l36.3-36.3
		c2.9-2.9,7.7-2.9,10.6,0l36.3,36.3c2.9,2.9,2.9,7.7,0,10.6l-36.3,36.3C2878.5,1407.9,2876.6,1408.7,2874.6,1408.7z M2848.9,1364.8
		l25.7,25.7l25.7-25.7l-25.7-25.7L2848.9,1364.8z"/>
	<g>
		<g>
			<g>
				<circle class="st3" cx="1407.9" cy="3011.2" r="203.9"/>
				<path class="st4" d="M1407.9,3222.7c-116.6,0-211.4-94.8-211.4-211.4c0-116.6,94.8-211.4,211.4-211.4
					c116.6,0,211.4,94.8,211.4,211.4C1619.3,3127.8,1524.4,3222.7,1407.9,3222.7z M1407.9,2814.8c-108.3,0-196.4,88.1-196.4,196.4
					c0,108.3,88.1,196.4,196.4,196.4c108.3,0,196.4-88.1,196.4-196.4C1604.3,2902.9,1516.2,2814.8,1407.9,2814.8z"/>
			</g>
			<g>
				<circle class="st5" cx="1407.9" cy="3011.2" r="174.6"/>
				<path class="st4" d="M1407.9,3193.3c-100.4,0-182.1-81.7-182.1-182.1c0-100.4,81.7-182.1,182.1-182.1s182.1,81.7,182.1,182.1
					C1590,3111.6,1508.3,3193.3,1407.9,3193.3z M1407.9,2844.2c-92.1,0-167.1,75-167.1,167.1c0,92.1,75,167.1,167.1,167.1
					c92.1,0,167.1-75,167.1-167.1C1575,2919.1,1500,2844.2,1407.9,2844.2z"/>
			</g>
			<g>
				<ellipse class="st6" cx="1407.9" cy="3011.2" rx="48.2" ry="48.2"/>
				<path class="st4" d="M1407.9,3067c-30.7,0-55.8-25-55.8-55.7c0-30.7,25-55.7,55.8-55.7c30.7,0,55.7,25,55.7,55.7
					C1463.6,3042,1438.6,3067,1407.9,3067z M1407.9,2970.5c-22.5,0-40.8,18.3-40.8,40.7c0,22.5,18.3,40.7,40.8,40.7
					c22.5,0,40.7-18.3,40.7-40.7C1448.6,2988.8,1430.3,2970.5,1407.9,2970.5z"/>
			</g>
			<g>
				<circle class="st7" cx="1407.9" cy="3011.2" r="17.8"/>
				<path class="st4" d="M1407.9,3036.6c-14,0-25.3-11.4-25.3-25.3c0-14,11.4-25.3,25.3-25.3s25.3,11.4,25.3,25.3
					C1433.2,3025.2,1421.8,3036.6,1407.9,3036.6z M1407.9,3000.9c-5.7,0-10.3,4.6-10.3,10.3c0,5.7,4.6,10.3,10.3,10.3
					c5.7,0,10.3-4.6,10.3-10.3C1418.2,3005.5,1413.6,3000.9,1407.9,3000.9z"/>
			</g>
			<path class="st4" d="M1425.7,2814.8c-0.4,0-0.9,0-1.3-0.1c-4.1-0.7-6.8-4.6-6.1-8.7l23.9-133.5c0.7-4.1,4.6-6.8,8.7-6.1
				c4.1,0.7,6.8,4.6,6.1,8.7l-23.9,133.5C1432.4,2812.3,1429.3,2814.8,1425.7,2814.8z"/>
			<path class="st4" d="M1449.6,2681.3c-3.6,0-6.8-2.6-7.4-6.3c-0.6-4.1,2.1-7.9,6.2-8.6l62.2-9.8c4.1-0.7,7.9,2.1,8.6,6.2
				c0.6,4.1-2.1,7.9-6.2,8.6l-62.2,9.8C1450.4,2681.3,1450,2681.3,1449.6,2681.3z"/>
			<g>
				<path class="st8" d="M1489.3,2679.6c-6.2,0-11.6-4.5-12.5-10.8c-1-6.9,3.8-13.3,10.7-14.3l53.3-7.7c6.9-1,13.3,3.8,14.3,10.7
					c1,6.9-3.8,13.3-10.7,14.3l-53.3,7.7C1490.5,2679.6,1489.9,2679.6,1489.3,2679.6z"/>
				<path class="st4" d="M1489.3,2687.1c-9.9,0-18.5-7.4-19.9-17.3c-1.6-11,6.1-21.2,17.1-22.8l53.3-7.7c1-0.1,1.9-0.2,2.9-0.2
					c9.9,0,18.5,7.4,19.9,17.3c0.8,5.3-0.6,10.6-3.8,14.9c-3.2,4.3-7.9,7.1-13.3,7.9l-53.3,7.7
					C1491.2,2687,1490.3,2687.1,1489.3,2687.1z M1542.6,2654.1c-0.2,0-0.5,0-0.8,0.1l-53.3,7.7c-2.8,0.4-4.8,3-4.4,5.8
					c0.4,2.8,3,4.8,5.8,4.3l53.3-7.7c1.4-0.2,2.6-0.9,3.4-2c0.8-1.1,1.2-2.5,1-3.8C1547.3,2656,1545.1,2654.1,1542.6,2654.1z"/>
			</g>
			<g>
				<path class="st6" d="M1204,3011.2c0-10.9,0.9-21.7,2.5-32.2h-100.8c-13.2,0-23.9,10.7-23.9,23.9c0,13.2,10.7,23.9,23.9,23.9
					h98.8C1204.2,3021.7,1204,3016.5,1204,3011.2z"/>
				<path class="st4" d="M1204.5,3034.4h-98.8c-17.3,0-31.4-14.1-31.4-31.4c0-17.3,14.1-31.4,31.4-31.4h100.8c2.2,0,4.3,1,5.7,2.6
					c1.4,1.7,2,3.9,1.7,6c-1.6,10.2-2.4,20.6-2.4,31c0,5,0.2,10,0.6,15.1c0.2,2.1-0.6,4.1-2,5.7
					C1208.6,3033.5,1206.6,3034.4,1204.5,3034.4z M1105.7,2986.6c-9,0-16.4,7.4-16.4,16.4c0,9,7.4,16.4,16.4,16.4h90.9
					c-0.1-2.7-0.2-5.5-0.2-8.2c0-8.2,0.5-16.5,1.4-24.7H1105.7z"/>
			</g>
			<path class="st4" d="M1081.8,3122.1c-1.2,0-2.4-0.3-3.5-0.9c-3.7-1.9-5.1-6.5-3.2-10.1l44.8-85.5c1.9-3.7,6.5-5.1,10.1-3.2
				c3.7,1.9,5.1,6.5,3.2,10.1l-44.8,85.5C1087.1,3120.6,1084.5,3122.1,1081.8,3122.1z"/>
			<path class="st4" d="M1081.8,3122.1H998c-4.1,0-7.5-3.4-7.5-7.5c0-4.1,3.4-7.5,7.5-7.5h83.8c4.1,0,7.5,3.4,7.5,7.5
				C1089.3,3118.7,1085.9,3122.1,1081.8,3122.1z"/>
			<g>
				<g>
					<circle class="st8" cx="1073.4" cy="3166.2" r="48.9"/>
					<path class="st4" d="M1073.4,3222.7c-31.1,0-56.4-25.3-56.4-56.4c0-31.1,25.3-56.4,56.4-56.4c31.1,0,56.4,25.3,56.4,56.4
						C1129.8,3197.3,1104.5,3222.7,1073.4,3222.7z M1073.4,3124.8c-22.8,0-41.4,18.6-41.4,41.4c0,22.8,18.6,41.4,41.4,41.4
						c22.8,0,41.4-18.6,41.4-41.4C1114.8,3143.4,1096.2,3124.8,1073.4,3124.8z"/>
				</g>
				<g>
					<circle class="st3" cx="1073.4" cy="3166.2" r="17.5"/>
					<path class="st4" d="M1073.4,3191.2c-13.8,0-25-11.2-25-25c0-13.8,11.2-25,25-25c13.8,0,25,11.2,25,25
						C1098.4,3180,1087.2,3191.2,1073.4,3191.2z M1073.4,3156.2c-5.5,0-10,4.5-10,10c0,5.5,4.5,10,10,10c5.5,0,10-4.5,10-10
						C1083.4,3160.7,1078.9,3156.2,1073.4,3156.2z"/>
				</g>
			</g>
			<path class="st4" d="M1169.2,2986.6c-4.1,0-7.5-3.4-7.5-7.5V2839c0-21.6,18.2-39.2,40.5-39.2h152.5c4.1,0,7.5,3.4,7.5,7.5
				c0,4.1-3.4,7.5-7.5,7.5h-152.5c-14,0-25.5,10.8-25.5,24.2v140.1C1176.7,2983.2,1173.3,2986.6,1169.2,2986.6z"/>
			<g>
				<path class="st8" d="M1169.2,2868.1c-7,0-12.6-5.7-12.6-12.6V2839c0-24.4,20.5-44.3,45.6-44.3h139.9c7,0,12.6,5.7,12.6,12.6
					c0,7-5.7,12.6-12.6,12.6h-139.9c-11.2,0-20.3,8.5-20.3,19v16.4C1181.8,2862.4,1176.2,2868.1,1169.2,2868.1z"/>
				<path class="st4" d="M1169.2,2875.6c-11.1,0-20.1-9-20.1-20.1V2839c0-28.6,23.8-51.8,53.1-51.8h139.9c11.1,0,20.1,9,20.1,20.1
					c0,11.1-9,20.1-20.1,20.1h-139.9c-7.1,0-12.8,5.2-12.8,11.5v16.4C1189.3,2866.5,1180.3,2875.6,1169.2,2875.6z M1202.2,2802.2
					c-21,0-38.1,16.5-38.1,36.8v16.4c0,2.8,2.3,5.1,5.1,5.1c2.8,0,5.1-2.3,5.1-5.1V2839c0-14.6,12.5-26.5,27.8-26.5h139.9
					c2.8,0,5.1-2.3,5.1-5.1c0-2.8-2.3-5.1-5.1-5.1H1202.2z"/>
			</g>
			<path class="st4" d="M1407.9,2963.2c-4.1,0-7.5-3.4-7.5-7.5v-118.9c0-4.1,3.4-7.5,7.5-7.5s7.5,3.4,7.5,7.5v118.9
				C1415.4,2959.9,1412,2963.2,1407.9,2963.2z"/>
			<path class="st4" d="M1407.9,3193.3c-4.1,0-7.5-3.4-7.5-7.5v-124c0-4.1,3.4-7.5,7.5-7.5s7.5,3.4,7.5,7.5v124
				C1415.4,3190,1412,3193.3,1407.9,3193.3z"/>
			<path class="st4" d="M1582.3,3018.8h-118.9c-4.1,0-7.5-3.4-7.5-7.5c0-4.1,3.4-7.5,7.5-7.5h118.9c4.1,0,7.5,3.4,7.5,7.5
				C1589.8,3015.5,1586.5,3018.8,1582.3,3018.8z"/>
			<path class="st4" d="M1357.4,3018.8h-124c-4.1,0-7.5-3.4-7.5-7.5c0-4.1,3.4-7.5,7.5-7.5h124c4.1,0,7.5,3.4,7.5,7.5
				C1364.9,3015.5,1361.6,3018.8,1357.4,3018.8z"/>
			<path class="st4" d="M1447.2,2979.5c-1.9,0-3.8-0.7-5.3-2.2c-2.9-2.9-2.9-7.7,0-10.6l84-84c2.9-2.9,7.7-2.9,10.6,0
				c2.9,2.9,2.9,7.7,0,10.6l-84,84C1451,2978.8,1449.1,2979.5,1447.2,2979.5z"/>
			<path class="st4" d="M1284.5,3142.2c-1.9,0-3.8-0.7-5.3-2.2c-2.9-2.9-2.9-7.7,0-10.6l87.7-87.7c2.9-2.9,7.7-2.9,10.6,0
				c2.9,2.9,2.9,7.7,0,10.6l-87.7,87.7C1288.3,3141.5,1286.4,3142.2,1284.5,3142.2z"/>
			<path class="st4" d="M1531.2,3142.2c-1.9,0-3.8-0.7-5.3-2.2l-84-84c-2.9-2.9-2.9-7.7,0-10.6c2.9-2.9,7.7-2.9,10.6,0l84,84
				c2.9,2.9,2.9,7.7,0,10.6C1535.1,3141.5,1533.2,3142.2,1531.2,3142.2z"/>
			<path class="st4" d="M1372.2,2983.2c-1.9,0-3.8-0.7-5.3-2.2l-87.7-87.7c-2.9-2.9-2.9-7.7,0-10.6c2.9-2.9,7.7-2.9,10.6,0
				l87.7,87.7c2.9,2.9,2.9,7.7,0,10.6C1376,2982.4,1374.1,2983.2,1372.2,2983.2z"/>
		</g>
	</g>
	<g>
		<g>
			<path class="st5" d="M3183,3169.8V2910v-991.6c0-33.7-27.3-61-61-61h-710.2c-33.7,0-61,27.3-61,61V2910v259.7H3183z"/>
			<path class="st4" d="M3183,3177.3h-832.2c-4.1,0-7.5-3.4-7.5-7.5V1918.4c0-37.7,30.7-68.5,68.5-68.5H3122
				c37.8,0,68.5,30.7,68.5,68.5v1251.3C3190.5,3173.9,3187.1,3177.3,3183,3177.3z M2358.3,3162.3h817.2V1918.4
				c0-29.5-24-53.5-53.5-53.5h-710.2c-29.5,0-53.5,24-53.5,53.5V3162.3z"/>
		</g>
		<g>
			<path class="st8" d="M2950.6,1857.5v-184.8c0-33.7-27.3-61-61-61h-245.4c-33.7,0-61,27.3-61,61v184.8H2950.6z"/>
			<path class="st4" d="M2950.6,1865h-367.3c-4.1,0-7.5-3.4-7.5-7.5v-184.8c0-37.8,30.7-68.5,68.5-68.5h245.4
				c37.8,0,68.5,30.7,68.5,68.5v184.8C2958.1,1861.6,2954.7,1865,2950.6,1865z M2590.7,1850h352.3v-177.3c0-29.5-24-53.5-53.5-53.5
				h-245.4c-29.5,0-53.5,24-53.5,53.5V1850z"/>
		</g>
		<g>
			<path class="st4" d="M2721.8,1799.2c-4.1,0-7.5-3.4-7.5-7.5v-100.9c0-4.1,3.4-7.5,7.5-7.5s7.5,3.4,7.5,7.5v100.9
				C2729.3,1795.9,2726,1799.2,2721.8,1799.2z"/>
			<path class="st4" d="M2812,1799.2c-4.1,0-7.5-3.4-7.5-7.5v-100.9c0-4.1,3.4-7.5,7.5-7.5c4.1,0,7.5,3.4,7.5,7.5v100.9
				C2819.5,1795.9,2816.1,1799.2,2812,1799.2z"/>
			<path class="st4" d="M2812,1748.8h-90.2c-4.1,0-7.5-3.4-7.5-7.5s3.4-7.5,7.5-7.5h90.2c4.1,0,7.5,3.4,7.5,7.5
				S2816.1,1748.8,2812,1748.8z"/>
			<path class="st4" d="M2740,1698.4h-36.3c-4.1,0-7.5-3.4-7.5-7.5s3.4-7.5,7.5-7.5h36.3c4.1,0,7.5,3.4,7.5,7.5
				S2744.1,1698.4,2740,1698.4z"/>
			<path class="st4" d="M2830.2,1698.4h-36.3c-4.1,0-7.5-3.4-7.5-7.5s3.4-7.5,7.5-7.5h36.3c4.1,0,7.5,3.4,7.5,7.5
				S2834.3,1698.4,2830.2,1698.4z"/>
			<path class="st4" d="M2740,1804.3h-36.3c-4.1,0-7.5-3.4-7.5-7.5c0-4.1,3.4-7.5,7.5-7.5h36.3c4.1,0,7.5,3.4,7.5,7.5
				C2747.5,1800.9,2744.1,1804.3,2740,1804.3z"/>
			<path class="st4" d="M2830.2,1804.3h-36.3c-4.1,0-7.5-3.4-7.5-7.5c0-4.1,3.4-7.5,7.5-7.5h36.3c4.1,0,7.5,3.4,7.5,7.5
				C2837.7,1800.9,2834.3,1804.3,2830.2,1804.3z"/>
		</g>
		<path class="st4" d="M2561.3,2908.5h-169.2c-4.1,0-7.5-3.4-7.5-7.5v-177.5c0-4.1,3.4-7.5,7.5-7.5h169.2c4.1,0,7.5,3.4,7.5,7.5
			V2901C2568.8,2905.2,2565.4,2908.5,2561.3,2908.5z M2399.6,2893.5h154.2V2731h-154.2V2893.5z"/>
		<path class="st4" d="M2561.3,3132.4h-169.2c-4.1,0-7.5-3.4-7.5-7.5v-177.5c0-4.1,3.4-7.5,7.5-7.5h169.2c4.1,0,7.5,3.4,7.5,7.5
			v177.5C2568.8,3129,2565.4,3132.4,2561.3,3132.4z M2399.6,3117.4h154.2v-162.5h-154.2V3117.4z"/>
		<g>
			<rect x="2412.1" y="2744.5" class="st3" width="129.1" height="135.5"/>
			<path class="st4" d="M2541.3,2887.5h-129.1c-4.1,0-7.5-3.4-7.5-7.5v-135.5c0-4.1,3.4-7.5,7.5-7.5h129.1c4.1,0,7.5,3.4,7.5,7.5
				V2880C2548.8,2884.2,2545.4,2887.5,2541.3,2887.5z M2419.6,2872.5h114.1V2752h-114.1V2872.5z"/>
		</g>
		<g>
			<rect x="2412.1" y="2968.3" class="st3" width="129.1" height="135.5"/>
			<path class="st4" d="M2541.3,3111.4h-129.1c-4.1,0-7.5-3.4-7.5-7.5v-135.5c0-4.1,3.4-7.5,7.5-7.5h129.1c4.1,0,7.5,3.4,7.5,7.5
				v135.5C2548.8,3108,2545.4,3111.4,2541.3,3111.4z M2419.6,3096.4h114.1v-120.5h-114.1V3096.4z"/>
		</g>
		<path class="st4" d="M3146.9,2908.5h-169.2c-4.1,0-7.5-3.4-7.5-7.5v-177.5c0-4.1,3.4-7.5,7.5-7.5h169.2c4.1,0,7.5,3.4,7.5,7.5
			V2901C3154.4,2905.2,3151,2908.5,3146.9,2908.5z M2985.2,2893.5h154.2V2731h-154.2V2893.5z"/>
		<path class="st4" d="M3146.9,3132.4h-169.2c-4.1,0-7.5-3.4-7.5-7.5v-177.5c0-4.1,3.4-7.5,7.5-7.5h169.2c4.1,0,7.5,3.4,7.5,7.5
			v177.5C3154.4,3129,3151,3132.4,3146.9,3132.4z M2985.2,3117.4h154.2v-162.5h-154.2V3117.4z"/>
		<g>
			<rect x="2997.7" y="2744.5" class="st3" width="129.1" height="135.5"/>
			<path class="st4" d="M3126.8,2887.5h-129.1c-4.1,0-7.5-3.4-7.5-7.5v-135.5c0-4.1,3.4-7.5,7.5-7.5h129.1c4.1,0,7.5,3.4,7.5,7.5
				V2880C3134.3,2884.2,3131,2887.5,3126.8,2887.5z M3005.2,2872.5h114.1V2752h-114.1V2872.5z"/>
		</g>
		<g>
			<rect x="2997.7" y="2968.3" class="st3" width="129.1" height="135.5"/>
			<path class="st4" d="M3126.8,3111.4h-129.1c-4.1,0-7.5-3.4-7.5-7.5v-135.5c0-4.1,3.4-7.5,7.5-7.5h129.1c4.1,0,7.5,3.4,7.5,7.5
				v135.5C3134.3,3108,3131,3111.4,3126.8,3111.4z M3005.2,3096.4h114.1v-120.5h-114.1V3096.4z"/>
		</g>
		<path class="st4" d="M3123.8,2119.6h-194.6c-4.1,0-7.5-3.4-7.5-7.5V1924c0-4.1,3.4-7.5,7.5-7.5h194.6c4.1,0,7.5,3.4,7.5,7.5v188.1
			C3131.3,2116.2,3128,2119.6,3123.8,2119.6z M2936.7,2104.6h179.6v-173.1h-179.6V2104.6z"/>
		<path class="st4" d="M2865.3,2119.6h-194.6c-4.1,0-7.5-3.4-7.5-7.5V1924c0-4.1,3.4-7.5,7.5-7.5h194.6c4.1,0,7.5,3.4,7.5,7.5v188.1
			C2872.8,2116.2,2869.4,2119.6,2865.3,2119.6z M2678.2,2104.6h179.6v-173.1h-179.6V2104.6z"/>
		<path class="st4" d="M2606.8,2119.6h-194.6c-4.1,0-7.5-3.4-7.5-7.5V1924c0-4.1,3.4-7.5,7.5-7.5h194.6c4.1,0,7.5,3.4,7.5,7.5v188.1
			C2614.3,2116.2,2610.9,2119.6,2606.8,2119.6z M2419.6,2104.6h179.6v-173.1h-179.6V2104.6z"/>
		<g>
			<rect x="2436.1" y="1947.2" class="st3" width="146.6" height="141.7"/>
			<path class="st4" d="M2582.7,2096.4h-146.6c-4.1,0-7.5-3.4-7.5-7.5v-141.7c0-4.1,3.4-7.5,7.5-7.5h146.6c4.1,0,7.5,3.4,7.5,7.5
				v141.7C2590.2,2093,2586.9,2096.4,2582.7,2096.4z M2443.6,2081.4h131.6v-126.7h-131.6V2081.4z"/>
		</g>
		<g>
			<rect x="2694.7" y="1947.2" class="st3" width="146.6" height="141.7"/>
			<path class="st4" d="M2841.3,2096.4h-146.6c-4.1,0-7.5-3.4-7.5-7.5v-141.7c0-4.1,3.4-7.5,7.5-7.5h146.6c4.1,0,7.5,3.4,7.5,7.5
				v141.7C2848.8,2093,2845.4,2096.4,2841.3,2096.4z M2702.2,2081.4h131.6v-126.7h-131.6V2081.4z"/>
		</g>
		<g>
			<rect x="2953.2" y="1947.2" class="st3" width="146.6" height="141.7"/>
			<path class="st4" d="M3099.8,2096.4h-146.6c-4.1,0-7.5-3.4-7.5-7.5v-141.7c0-4.1,3.4-7.5,7.5-7.5h146.6c4.1,0,7.5,3.4,7.5,7.5
				v141.7C3107.3,2093,3103.9,2096.4,3099.8,2096.4z M2960.7,2081.4h131.6v-126.7h-131.6V2081.4z"/>
		</g>
		<g>
			<rect x="2436.1" y="2202.8" class="st3" width="146.6" height="141.7"/>
			<path class="st4" d="M2582.7,2351.9h-146.6c-4.1,0-7.5-3.4-7.5-7.5v-141.7c0-4.1,3.4-7.5,7.5-7.5h146.6c4.1,0,7.5,3.4,7.5,7.5
				v141.7C2590.2,2348.6,2586.9,2351.9,2582.7,2351.9z M2443.6,2336.9h131.6v-126.7h-131.6V2336.9z"/>
		</g>
		<g>
			<rect x="2694.7" y="2202.8" class="st3" width="146.6" height="141.7"/>
			<path class="st4" d="M2841.3,2351.9h-146.6c-4.1,0-7.5-3.4-7.5-7.5v-141.7c0-4.1,3.4-7.5,7.5-7.5h146.6c4.1,0,7.5,3.4,7.5,7.5
				v141.7C2848.8,2348.6,2845.4,2351.9,2841.3,2351.9z M2702.2,2336.9h131.6v-126.7h-131.6V2336.9z"/>
		</g>
		<g>
			<rect x="2953.2" y="2202.8" class="st3" width="146.6" height="141.7"/>
			<path class="st4" d="M3099.8,2351.9h-146.6c-4.1,0-7.5-3.4-7.5-7.5v-141.7c0-4.1,3.4-7.5,7.5-7.5h146.6c4.1,0,7.5,3.4,7.5,7.5
				v141.7C3107.3,2348.6,3103.9,2351.9,3099.8,2351.9z M2960.7,2336.9h131.6v-126.7h-131.6V2336.9z"/>
		</g>
		<g>
			<rect x="2436.1" y="2458.3" class="st3" width="146.6" height="141.7"/>
			<path class="st4" d="M2582.7,2607.5h-146.6c-4.1,0-7.5-3.4-7.5-7.5v-141.7c0-4.1,3.4-7.5,7.5-7.5h146.6c4.1,0,7.5,3.4,7.5,7.5
				V2600C2590.2,2604.1,2586.9,2607.5,2582.7,2607.5z M2443.6,2592.5h131.6v-126.7h-131.6V2592.5z"/>
		</g>
		<g>
			<rect x="2694.7" y="2458.3" class="st3" width="146.6" height="141.7"/>
			<path class="st4" d="M2841.3,2607.5h-146.6c-4.1,0-7.5-3.4-7.5-7.5v-141.7c0-4.1,3.4-7.5,7.5-7.5h146.6c4.1,0,7.5,3.4,7.5,7.5
				V2600C2848.8,2604.1,2845.4,2607.5,2841.3,2607.5z M2702.2,2592.5h131.6v-126.7h-131.6V2592.5z"/>
		</g>
		<g>
			<rect x="2953.2" y="2458.3" class="st3" width="146.6" height="141.7"/>
			<path class="st4" d="M3099.8,2607.5h-146.6c-4.1,0-7.5-3.4-7.5-7.5v-141.7c0-4.1,3.4-7.5,7.5-7.5h146.6c4.1,0,7.5,3.4,7.5,7.5
				V2600C3107.3,2604.1,3103.9,2607.5,3099.8,2607.5z M2960.7,2592.5h131.6v-126.7h-131.6V2592.5z"/>
		</g>
		<path class="st4" d="M3123.8,2375.1h-194.6c-4.1,0-7.5-3.4-7.5-7.5v-188.1c0-4.1,3.4-7.5,7.5-7.5h194.6c4.1,0,7.5,3.4,7.5,7.5
			v188.1C3131.3,2371.8,3128,2375.1,3123.8,2375.1z M2936.7,2360.1h179.6v-173.1h-179.6V2360.1z"/>
		<path class="st4" d="M2865.3,2375.1h-194.6c-4.1,0-7.5-3.4-7.5-7.5v-188.1c0-4.1,3.4-7.5,7.5-7.5h194.6c4.1,0,7.5,3.4,7.5,7.5
			v188.1C2872.8,2371.8,2869.4,2375.1,2865.3,2375.1z M2678.2,2360.1h179.6v-173.1h-179.6V2360.1z"/>
		<path class="st4" d="M2606.8,2375.1h-194.6c-4.1,0-7.5-3.4-7.5-7.5v-188.1c0-4.1,3.4-7.5,7.5-7.5h194.6c4.1,0,7.5,3.4,7.5,7.5
			v188.1C2614.3,2371.8,2610.9,2375.1,2606.8,2375.1z M2419.6,2360.1h179.6v-173.1h-179.6V2360.1z"/>
		<path class="st4" d="M3123.8,2630.7h-194.6c-4.1,0-7.5-3.4-7.5-7.5v-188.1c0-4.1,3.4-7.5,7.5-7.5h194.6c4.1,0,7.5,3.4,7.5,7.5
			v188.1C3131.3,2627.3,3128,2630.7,3123.8,2630.7z M2936.7,2615.7h179.6v-173.1h-179.6V2615.7z"/>
		<path class="st4" d="M2865.3,2630.7h-194.6c-4.1,0-7.5-3.4-7.5-7.5v-188.1c0-4.1,3.4-7.5,7.5-7.5h194.6c4.1,0,7.5,3.4,7.5,7.5
			v188.1C2872.8,2627.3,2869.4,2630.7,2865.3,2630.7z M2678.2,2615.7h179.6v-173.1h-179.6V2615.7z"/>
		<path class="st4" d="M2606.8,2630.7h-194.6c-4.1,0-7.5-3.4-7.5-7.5v-188.1c0-4.1,3.4-7.5,7.5-7.5h194.6c4.1,0,7.5,3.4,7.5,7.5
			v188.1C2614.3,2627.3,2610.9,2630.7,2606.8,2630.7z M2419.6,2615.7h179.6v-173.1h-179.6V2615.7z"/>
		<g>
			<rect x="2604.8" y="2690.7" class="st9" width="336.3" height="479"/>
			<path class="st4" d="M2941.1,3177.3h-336.3c-4.1,0-7.5-3.4-7.5-7.5v-479c0-4.1,3.4-7.5,7.5-7.5h336.3c4.1,0,7.5,3.4,7.5,7.5v479
				C2948.6,3173.9,2945.2,3177.3,2941.1,3177.3z M2612.3,3162.3h321.3v-464h-321.3V3162.3z"/>
		</g>
		<g>
			<rect x="2635.8" y="2690.7" class="st3" width="274.4" height="479"/>
			<path class="st4" d="M2910.1,3177.3h-274.4c-4.1,0-7.5-3.4-7.5-7.5v-479c0-4.1,3.4-7.5,7.5-7.5h274.4c4.1,0,7.5,3.4,7.5,7.5v479
				C2917.6,3173.9,2914.3,3177.3,2910.1,3177.3z M2643.3,3162.3h259.4v-464h-259.4V3162.3z"/>
		</g>
		<path class="st4" d="M2984.2,2698.2H2565c-4.1,0-7.5-3.4-7.5-7.5s3.4-7.5,7.5-7.5h419.1c4.1,0,7.5,3.4,7.5,7.5
			S2988.3,2698.2,2984.2,2698.2z"/>
		<g>
			<g>
				<rect x="1624.6" y="2477.8" class="st10" width="726.3" height="691.9"/>
				<path class="st4" d="M2350.8,3177.3h-726.3c-4.1,0-7.5-3.4-7.5-7.5v-691.9c0-4.1,3.4-7.5,7.5-7.5h726.3c4.1,0,7.5,3.4,7.5,7.5
					v691.9C2358.3,3173.9,2355,3177.3,2350.8,3177.3z M1632.1,3162.3h711.3v-676.9h-711.3V3162.3z"/>
			</g>
			<g>
				<path class="st6" d="M2350.8,2399.4h-780.4c-24,0-43.4,17.6-43.4,39.2c0,21.7,19.4,39.2,43.4,39.2h780.4V2399.4z"/>
				<path class="st4" d="M2350.8,2485.3h-780.4c-28.1,0-50.9-21-50.9-46.7c0-25.8,22.8-46.7,50.9-46.7h780.4c4.1,0,7.5,3.4,7.5,7.5
					v78.5C2358.3,2482,2355,2485.3,2350.8,2485.3z M1570.4,2406.9c-19.8,0-35.9,14.2-35.9,31.7c0,17.5,16.1,31.7,35.9,31.7h772.9
					v-63.5H1570.4z"/>
			</g>
			<g>
				<rect x="1700" y="2547.5" class="st5" width="138.6" height="138.6"/>
				<path class="st4" d="M1838.5,2693.6H1700c-4.1,0-7.5-3.4-7.5-7.5v-138.6c0-4.1,3.4-7.5,7.5-7.5h138.6c4.1,0,7.5,3.4,7.5,7.5
					v138.6C1846,2690.2,1842.7,2693.6,1838.5,2693.6z M1707.5,2678.6H1831V2555h-123.6V2678.6z"/>
			</g>
			<g>
				<rect x="1918.4" y="2547.5" class="st5" width="138.6" height="138.6"/>
				<path class="st4" d="M2057,2693.6h-138.6c-4.1,0-7.5-3.4-7.5-7.5v-138.6c0-4.1,3.4-7.5,7.5-7.5H2057c4.1,0,7.5,3.4,7.5,7.5
					v138.6C2064.5,2690.2,2061.1,2693.6,2057,2693.6z M1925.9,2678.6h123.6V2555h-123.6V2678.6z"/>
			</g>
			<g>
				<rect x="2136.8" y="2547.5" class="st5" width="138.6" height="138.6"/>
				<path class="st4" d="M2275.4,2693.6h-138.6c-4.1,0-7.5-3.4-7.5-7.5v-138.6c0-4.1,3.4-7.5,7.5-7.5h138.6c4.1,0,7.5,3.4,7.5,7.5
					v138.6C2282.9,2690.2,2279.6,2693.6,2275.4,2693.6z M2144.3,2678.6h123.6V2555h-123.6V2678.6z"/>
			</g>
			<g>
				<rect x="1700" y="2754.5" class="st5" width="138.6" height="138.6"/>
				<path class="st4" d="M1838.5,2900.6H1700c-4.1,0-7.5-3.4-7.5-7.5v-138.6c0-4.1,3.4-7.5,7.5-7.5h138.6c4.1,0,7.5,3.4,7.5,7.5
					v138.6C1846,2897.2,1842.7,2900.6,1838.5,2900.6z M1707.5,2885.6H1831V2762h-123.6V2885.6z"/>
			</g>
			<g>
				<rect x="1918.4" y="2754.5" class="st5" width="138.6" height="138.6"/>
				<path class="st4" d="M2057,2900.6h-138.6c-4.1,0-7.5-3.4-7.5-7.5v-138.6c0-4.1,3.4-7.5,7.5-7.5H2057c4.1,0,7.5,3.4,7.5,7.5
					v138.6C2064.5,2897.2,2061.1,2900.6,2057,2900.6z M1925.9,2885.6h123.6V2762h-123.6V2885.6z"/>
			</g>
			<g>
				<rect x="2136.8" y="2754.5" class="st5" width="138.6" height="138.6"/>
				<path class="st4" d="M2275.4,2900.6h-138.6c-4.1,0-7.5-3.4-7.5-7.5v-138.6c0-4.1,3.4-7.5,7.5-7.5h138.6c4.1,0,7.5,3.4,7.5,7.5
					v138.6C2282.9,2897.2,2279.6,2900.6,2275.4,2900.6z M2144.3,2885.6h123.6V2762h-123.6V2885.6z"/>
			</g>
			<g>
				<rect x="1700" y="2961.5" class="st5" width="138.6" height="138.6"/>
				<path class="st4" d="M1838.5,3107.6H1700c-4.1,0-7.5-3.4-7.5-7.5v-138.6c0-4.1,3.4-7.5,7.5-7.5h138.6c4.1,0,7.5,3.4,7.5,7.5
					v138.6C1846,3104.3,1842.7,3107.6,1838.5,3107.6z M1707.5,3092.6H1831V2969h-123.6V3092.6z"/>
			</g>
			<g>
				<rect x="1918.4" y="2961.5" class="st5" width="138.6" height="138.6"/>
				<path class="st4" d="M2057,3107.6h-138.6c-4.1,0-7.5-3.4-7.5-7.5v-138.6c0-4.1,3.4-7.5,7.5-7.5H2057c4.1,0,7.5,3.4,7.5,7.5
					v138.6C2064.5,3104.3,2061.1,3107.6,2057,3107.6z M1925.9,3092.6h123.6V2969h-123.6V3092.6z"/>
			</g>
			<g>
				<rect x="2136.8" y="2961.5" class="st5" width="138.6" height="138.6"/>
				<path class="st4" d="M2275.4,3107.6h-138.6c-4.1,0-7.5-3.4-7.5-7.5v-138.6c0-4.1,3.4-7.5,7.5-7.5h138.6c4.1,0,7.5,3.4,7.5,7.5
					v138.6C2282.9,3104.3,2279.6,3107.6,2275.4,3107.6z M2144.3,3092.6h123.6V2969h-123.6V3092.6z"/>
			</g>
		</g>
		<path class="st4" d="M2679.1,2930.6c-1.8,0-3.5-0.6-5-1.9c-3.1-2.7-3.4-7.5-0.7-10.6l175.5-198.7c2.7-3.1,7.5-3.4,10.6-0.7
			c3.1,2.7,3.4,7.5,0.7,10.6l-175.5,198.7C2683.3,2929.8,2681.2,2930.6,2679.1,2930.6z"/>
		<path class="st4" d="M2682.4,3125.7c-1.8,0-3.5-0.6-5-1.9c-3.1-2.7-3.4-7.5-0.6-10.6l192.2-216.9c2.7-3.1,7.5-3.4,10.6-0.6
			c3.1,2.7,3.4,7.5,0.6,10.6L2688,3123.2C2686.5,3124.9,2684.5,3125.7,2682.4,3125.7z"/>
		<path class="st4" d="M2745.2,3125.7c-1.8,0-3.5-0.6-5-1.9c-3.1-2.7-3.4-7.5-0.7-10.6l90.1-102c2.7-3.1,7.5-3.4,10.6-0.7
			c3.1,2.7,3.4,7.5,0.7,10.6l-90.1,102C2749.3,3124.9,2747.2,3125.7,2745.2,3125.7z"/>
		<path class="st4" d="M2790.2,2885.3c-1.8,0-3.5-0.6-4.9-1.9c-3.1-2.7-3.4-7.5-0.7-10.6l58.4-66.9c2.7-3.1,7.5-3.4,10.6-0.7
			c3.1,2.7,3.4,7.5,0.7,10.6l-58.4,66.9C2794.4,2884.4,2792.3,2885.3,2790.2,2885.3z"/>
		<g>
			<path class="st8" d="M3258.4,3194.2c0,13.5-11,24.5-24.5,24.5H1567.3c-13.5,0-24.5-11-24.5-24.5l0,0c0-13.5,11-24.5,24.5-24.5
				h1666.6C3247.4,3169.8,3258.4,3180.7,3258.4,3194.2L3258.4,3194.2z"/>
			<path class="st4" d="M3233.9,3226.2H1567.3c-17.6,0-32-14.3-32-32s14.3-32,32-32h1666.6c17.6,0,32,14.3,32,32
				S3251.5,3226.2,3233.9,3226.2z M1567.3,3177.3c-9.4,0-17,7.6-17,17c0,9.4,7.6,17,17,17h1666.6c9.4,0,17-7.6,17-17
				c0-9.4-7.6-17-17-17H1567.3z"/>
		</g>
	</g>
	<g>
		<g>
			<g>
				<g>
					<g>
						<path class="st7" d="M3101.3,3032.9c0,27.4,22.2,49.7,49.7,49.7h703.9c27.4,0,49.7-22.2,49.7-49.7v-104.3h-803.2V3032.9z"/>
						<path class="st4" d="M3854.9,3090.1H3151c-31.5,0-57.2-25.6-57.2-57.2v-104.3c0-4.1,3.4-7.5,7.5-7.5h803.2
							c4.1,0,7.5,3.4,7.5,7.5v104.3C3912,3064.4,3886.4,3090.1,3854.9,3090.1z M3108.8,2936.1v96.8c0,23.2,18.9,42.2,42.2,42.2
							h703.9c23.2,0,42.2-18.9,42.2-42.2v-96.8H3108.8z"/>
					</g>
					<g>
						<g>
							<rect x="3101.3" y="2615.1" class="st5" width="803.2" height="313.5"/>
							<path class="st4" d="M3904.5,2936.1h-803.2c-4.1,0-7.5-3.4-7.5-7.5v-313.5c0-4.1,3.4-7.5,7.5-7.5h803.2
								c4.1,0,7.5,3.4,7.5,7.5v313.5C3912,2932.8,3908.7,2936.1,3904.5,2936.1z M3108.8,2921.1H3897v-298.5h-788.2V2921.1z"/>
						</g>
					</g>
					<g>
						<rect x="3173.7" y="2677.2" class="st6" width="220.1" height="192.8"/>
						<path class="st4" d="M3393.8,2877.5h-220.1c-4.1,0-7.5-3.4-7.5-7.5v-192.8c0-4.1,3.4-7.5,7.5-7.5h220.1c4.1,0,7.5,3.4,7.5,7.5
							V2870C3401.3,2874.2,3397.9,2877.5,3393.8,2877.5z M3181.2,2862.5h205.1v-177.8h-205.1V2862.5z"/>
					</g>
				</g>
				<g>
					<polygon class="st10" points="3611.4,3184.9 3400.6,3184.9 3439,3082.6 3569,3082.6 					"/>
					<path class="st4" d="M3611.5,3192.4C3611.5,3192.4,3611.5,3192.4,3611.5,3192.4h-210.8c-2.5,0-4.8-1.2-6.2-3.2
						c-1.4-2-1.7-4.6-0.9-6.9l38.4-102.4c1.1-2.9,3.9-4.9,7-4.9h130c3,0,5.8,1.8,6.9,4.6l42.1,101.6c0.6,1.1,0.9,2.3,0.9,3.6
						C3619,3189.1,3615.6,3192.4,3611.5,3192.4z M3411.5,3177.4h188.8l-36.2-87.4h-119.8L3411.5,3177.4z"/>
				</g>
				<g>
					<path class="st3" d="M3665.8,3201.6c0,9.2-8.3,16.7-18.5,16.7h-282.4c-10.2,0-18.5-7.5-18.5-16.7l0,0c0-9.2,8.3-16.7,18.5-16.7
						h282.4C3657.5,3184.9,3665.8,3192.4,3665.8,3201.6L3665.8,3201.6z"/>
					<path class="st4" d="M3647.2,3225.8h-282.4c-14.4,0-26-10.9-26-24.2s11.7-24.2,26-24.2h282.4c14.4,0,26,10.9,26,24.2
						S3661.6,3225.8,3647.2,3225.8z M3364.8,3192.4c-6.1,0-11,4.1-11,9.2c0,5.1,5,9.2,11,9.2h282.4c6.1,0,11-4.1,11-9.2
						c0-5.1-5-9.2-11-9.2H3364.8z"/>
				</g>
				<g>
					<ellipse class="st8" cx="3502.9" cy="3004.8" rx="22.4" ry="22.4"/>
					<path class="st4" d="M3502.9,3034.7c-16.5,0-29.9-13.4-29.9-29.9c0-16.5,13.4-29.9,29.9-29.9c16.5,0,29.9,13.4,29.9,29.9
						C3532.8,3021.3,3519.4,3034.7,3502.9,3034.7z M3502.9,2989.9c-8.2,0-14.9,6.7-14.9,14.9c0,8.2,6.7,14.9,14.9,14.9
						c8.2,0,14.9-6.7,14.9-14.9C3517.8,2996.6,3511.1,2989.9,3502.9,2989.9z"/>
				</g>
			</g>
			<g>
				<path class="st8" d="M3904.5,2531.3c0-27.4-22.2-49.7-49.7-49.7H3151c-27.4,0-49.7,22.2-49.7,49.7v83.8h803.2V2531.3z"/>
				<path class="st4" d="M3904.5,2622.6h-803.2c-4.1,0-7.5-3.4-7.5-7.5v-83.8c0-31.5,25.6-57.2,57.2-57.2h703.9
					c31.5,0,57.2,25.6,57.2,57.2v83.8C3912,2619.2,3908.7,2622.6,3904.5,2622.6z M3108.8,2607.6H3897v-76.3
					c0-23.2-18.9-42.2-42.2-42.2H3151c-23.2,0-42.2,18.9-42.2,42.2V2607.6z"/>
			</g>
			<g>
				<circle class="st8" cx="3702" cy="2547.8" r="15.4"/>
				<path class="st4" d="M3702,2570.7c-12.7,0-22.9-10.3-22.9-22.9c0-12.7,10.3-23,22.9-23c12.7,0,22.9,10.3,22.9,23
					C3725,2560.5,3714.7,2570.7,3702,2570.7z M3702,2539.9c-4.4,0-7.9,3.6-7.9,8c0,4.4,3.6,7.9,7.9,7.9c4.4,0,7.9-3.6,7.9-7.9
					C3710,2543.4,3706.4,2539.9,3702,2539.9z"/>
			</g>
			<g>
				<path class="st3" d="M3775.5,2547.8c0,8.5-6.9,15.4-15.4,15.4c-8.5,0-15.5-6.9-15.5-15.4c0-8.5,6.9-15.5,15.5-15.5
					C3768.6,2532.4,3775.5,2539.3,3775.5,2547.8z"/>
				<path class="st4" d="M3760.1,2570.7c-12.7,0-23-10.3-23-22.9c0-12.7,10.3-23,23-23c12.7,0,22.9,10.3,22.9,23
					C3783,2560.5,3772.7,2570.7,3760.1,2570.7z M3760.1,2539.9c-4.4,0-8,3.6-8,8c0,4.4,3.6,7.9,8,7.9c4.4,0,7.9-3.6,7.9-7.9
					C3768,2543.4,3764.5,2539.9,3760.1,2539.9z"/>
			</g>
			<g>
				<path class="st6" d="M3833.6,2547.8c0,8.5-6.9,15.4-15.4,15.4c-8.5,0-15.4-6.9-15.4-15.4c0-8.5,6.9-15.5,15.4-15.5
					C3826.7,2532.4,3833.6,2539.3,3833.6,2547.8z"/>
				<path class="st4" d="M3818.1,2570.7c-12.7,0-22.9-10.3-22.9-22.9c0-12.7,10.3-23,22.9-23c12.6,0,22.9,10.3,22.9,23
					C3841.1,2560.5,3830.8,2570.7,3818.1,2570.7z M3818.1,2539.9c-4.4,0-7.9,3.6-7.9,8c0,4.4,3.6,7.9,7.9,7.9c4.4,0,7.9-3.6,7.9-7.9
					C3826.1,2543.4,3822.5,2539.9,3818.1,2539.9z"/>
			</g>
			<path class="st4" d="M3614.1,2783.7h-125.7c-4.1,0-7.5-3.4-7.5-7.5c0-4.1,3.4-7.5,7.5-7.5h125.7c4.1,0,7.5,3.4,7.5,7.5
				C3621.6,2780.4,3618.2,2783.7,3614.1,2783.7z"/>
			<path class="st4" d="M3669.9,2783.7h-24.8c-4.1,0-7.5-3.4-7.5-7.5c0-4.1,3.4-7.5,7.5-7.5h24.8c4.1,0,7.5,3.4,7.5,7.5
				C3677.4,2780.4,3674,2783.7,3669.9,2783.7z"/>
			<path class="st6" d="M3737.2,2832.9h-248.8c-4.1,0-7.5-3.4-7.5-7.5s3.4-7.5,7.5-7.5h248.8c4.1,0,7.5,3.4,7.5,7.5
				S3741.4,2832.9,3737.2,2832.9z"/>
			<path class="st4" d="M3515.3,2877.5h-26.9c-4.1,0-7.5-3.4-7.5-7.5s3.4-7.5,7.5-7.5h26.9c4.1,0,7.5,3.4,7.5,7.5
				S3519.5,2877.5,3515.3,2877.5z"/>
			<path class="st8" d="M3652.7,2877.5h-100.8c-4.1,0-7.5-3.4-7.5-7.5s3.4-7.5,7.5-7.5h100.8c4.1,0,7.5,3.4,7.5,7.5
				S3656.8,2877.5,3652.7,2877.5z"/>
			<path class="st3" d="M3826.7,2783.7h-116.2c-4.1,0-7.5-3.4-7.5-7.5c0-4.1,3.4-7.5,7.5-7.5h116.2c4.1,0,7.5,3.4,7.5,7.5
				C3834.2,2780.4,3830.8,2783.7,3826.7,2783.7z"/>
			<path class="st8" d="M3826.7,2832.9h-47.1c-4.1,0-7.5-3.4-7.5-7.5s3.4-7.5,7.5-7.5h47.1c4.1,0,7.5,3.4,7.5,7.5
				S3830.8,2832.9,3826.7,2832.9z"/>
			<path class="st6" d="M3709.5,2877.5h-19.4c-4.1,0-7.5-3.4-7.5-7.5s3.4-7.5,7.5-7.5h19.4c4.1,0,7.5,3.4,7.5,7.5
				S3713.6,2877.5,3709.5,2877.5z"/>
			<path class="st3" d="M3756.8,2877.5h-15.7c-4.1,0-7.5-3.4-7.5-7.5s3.4-7.5,7.5-7.5h15.7c4.1,0,7.5,3.4,7.5,7.5
				S3760.9,2877.5,3756.8,2877.5z"/>
			<path class="st4" d="M3826.7,2877.5h-36.9c-4.1,0-7.5-3.4-7.5-7.5s3.4-7.5,7.5-7.5h36.9c4.1,0,7.5,3.4,7.5,7.5
				S3830.8,2877.5,3826.7,2877.5z"/>
			<rect x="3476.6" y="2677.2" class="st3" width="350" height="59.5"/>
		</g>
	</g>
	<g>
		<g>
			<g>
				<path class="st3" d="M1887.7,2970.8c0-15.9-12.1-28.8-27.1-28.8h-262.9c-15,0-27.1,12.9-27.1,28.8v162.7h317.1V2970.8z"/>
				<path class="st4" d="M1887.7,3141.1h-317.1c-4.1,0-7.5-3.4-7.5-7.5v-162.7c0-20,15.5-36.3,34.6-36.3h262.9
					c19.1,0,34.6,16.3,34.6,36.3v162.7C1895.2,3137.7,1891.8,3141.1,1887.7,3141.1z M1578.1,3126.1h302.1v-155.2
					c0-11.8-8.8-21.3-19.6-21.3h-262.9c-10.8,0-19.6,9.6-19.6,21.3V3126.1z"/>
			</g>
			<path class="st4" d="M1697.7,3093.6c-0.1,0-0.3,0-0.4,0c-3.1-0.2-5.8-2.3-6.7-5.3l-23.6-77.5l-18.9,37.8
				c-1.3,2.5-3.9,4.1-6.7,4.1h-70.7c-4.1,0-7.5-3.4-7.5-7.5s3.4-7.5,7.5-7.5h66.1l25.3-50.4c1.4-2.7,4.3-4.4,7.3-4.1
				c3.1,0.3,5.6,2.4,6.5,5.3l23.1,76l20.9-48c1.1-2.5,3.4-4.2,6.1-4.5c2.7-0.3,5.3,0.9,6.9,3.1l15.1,20.9l24.7-36.6
				c1.4-2.1,3.9-3.4,6.4-3.3c2.6,0.1,4.9,1.5,6.2,3.7l22.6,38h79.7c4.1,0,7.5,3.4,7.5,7.5s-3.4,7.5-7.5,7.5h-84
				c-2.6,0-5.1-1.4-6.4-3.7l-18.8-31.5l-24.1,35.7c-1.4,2-3.6,3.3-6.1,3.3c-2.5-0.1-4.8-1.1-6.2-3.1l-13.7-18.9l-23.8,54.6
				C1703.4,3091.8,1700.7,3093.6,1697.7,3093.6z"/>
			<path class="st4" d="M1860.6,3201.8h-262.9c-19.1,0-34.6-16.3-34.6-36.3v-31.9c0-4.1,3.4-7.5,7.5-7.5h317.1
				c4.1,0,7.5,3.4,7.5,7.5v31.9C1895.2,3185.5,1879.7,3201.8,1860.6,3201.8z M1578.1,3141.1v24.4c0,11.8,8.8,21.3,19.6,21.3h262.9
				c10.8,0,19.6-9.6,19.6-21.3v-24.4H1578.1z"/>
			<g>
				<path class="st5" d="M1570.6,3133.6v31.9c0,15.9,12.1,28.8,27.1,28.8h262.9c15,0,27.1-12.9,27.1-28.8v-31.9H1570.6z"/>
				<path class="st4" d="M1860.6,3201.8h-262.9c-19.1,0-34.6-16.3-34.6-36.3v-31.9c0-4.1,3.4-7.5,7.5-7.5h317.1
					c4.1,0,7.5,3.4,7.5,7.5v31.9C1895.2,3185.5,1879.7,3201.8,1860.6,3201.8z M1578.1,3141.1v24.4c0,11.8,8.8,21.3,19.6,21.3h262.9
					c10.8,0,19.6-9.6,19.6-21.3v-24.4H1578.1z"/>
			</g>
			<ellipse class="st8" cx="1798.9" cy="3166.3" rx="7" ry="7.5"/>
			<ellipse class="st6" cx="1826" cy="3166.3" rx="7" ry="7.5"/>
			<ellipse class="st3" cx="1853.1" cy="3166.3" rx="7" ry="7.5"/>
			<g>
				<path class="st6" d="M1608.6,3194.3v11.6c0,6.4,4.9,11.6,10.9,11.6h22.9c6,0,10.9-5.2,10.9-11.6v-11.6H1608.6z"/>
				<path class="st4" d="M1642.4,3225h-22.9c-10.1,0-18.4-8.6-18.4-19.1v-11.6c0-4.1,3.4-7.5,7.5-7.5h44.6c4.1,0,7.5,3.4,7.5,7.5
					v11.6C1660.7,3216.4,1652.5,3225,1642.4,3225z M1616.1,3201.8v4.1c0,2.2,1.6,4.1,3.4,4.1h22.9c1.8,0,3.4-1.9,3.4-4.1v-4.1
					H1616.1z"/>
			</g>
			<g>
				<path class="st6" d="M1808.4,3194.3v11.6c0,6.4,4.9,11.6,10.9,11.6h22.9c6,0,10.9-5.2,10.9-11.6v-11.6H1808.4z"/>
				<path class="st4" d="M1842.2,3225h-22.9c-10.1,0-18.4-8.6-18.4-19.1v-11.6c0-4.1,3.4-7.5,7.5-7.5h44.6c4.1,0,7.5,3.4,7.5,7.5
					v11.6C1860.6,3216.4,1852.3,3225,1842.2,3225z M1815.9,3201.8v4.1c0,2.2,1.6,4.1,3.4,4.1h22.9c1.8,0,3.4-1.9,3.4-4.1v-4.1
					H1815.9z"/>
			</g>
		</g>
	</g>
	<g>
		<g>
			<g>
				<path class="st5" d="M4114,2877.5l-47-42.5c0,0,0,0-0.1-0.1v-36.7h-210.1v37.3l-52.1,42.8c-9.1,7.4-16.5,23.1-16.5,34.9v276.7
					c0,11.7,9.6,21.3,21.3,21.3h298.9c11.7,0,21.3-9.6,21.3-21.3v-276.7C4129.8,2901.4,4122.7,2885.4,4114,2877.5z"/>
				<path class="st4" d="M4108.5,3218.7h-298.9c-15.9,0-28.8-12.9-28.8-28.8v-276.7c0-13.9,8.4-31.8,19.2-40.6l49.4-40.5v-33.8
					c0-4.1,3.4-7.5,7.5-7.5h210.1c4.1,0,7.5,3.4,7.5,7.5v33.4l44.6,40.3c10.3,9.3,18.3,27.4,18.3,41.2v276.7
					C4137.3,3205.8,4124.4,3218.7,4108.5,3218.7z M3864.4,2805.7v29.8c0,2.2-1,4.4-2.7,5.8l-52.1,42.8c-7.3,6-13.7,19.6-13.7,29.1
					v276.7c0,7.6,6.2,13.8,13.8,13.8h298.9c7.6,0,13.8-6.2,13.8-13.8v-276.7c0-9.6-6.2-23.6-13.4-30.1l-46.9-42.4
					c-0.3-0.2-0.5-0.5-0.7-0.7c-1.2-1.4-1.9-3.1-1.9-5v-29.2H3864.4z"/>
			</g>
			<g>
				<g>
					<path class="st6" d="M4097.7,2769.8c0,15.7-12.7,28.4-28.4,28.4h-220.3c-15.7,0-28.4-12.7-28.4-28.4v-7.1
						c0-15.7,12.7-28.4,28.4-28.4h220.3c15.7,0,28.4,12.7,28.4,28.4V2769.8z"/>
					<path class="st4" d="M4069.2,2805.7h-220.3c-19.8,0-35.9-16.1-35.9-35.9v-7.1c0-19.8,16.1-35.9,35.9-35.9h220.3
						c19.8,0,35.9,16.1,35.9,35.9v7.1C4105.2,2789.6,4089,2805.7,4069.2,2805.7z M3848.9,2741.8c-11.5,0-20.9,9.4-20.9,20.9v7.1
						c0,11.5,9.4,20.9,20.9,20.9h220.3c11.5,0,20.9-9.4,20.9-20.9v-7.1c0-11.5-9.4-20.9-20.9-20.9H3848.9z"/>
				</g>
				<path class="st4" d="M3860.1,2805.7c-4.1,0-7.5-3.4-7.5-7.5v-64c0-4.1,3.4-7.5,7.5-7.5s7.5,3.4,7.5,7.5v64
					C3867.6,2802.4,3864.2,2805.7,3860.1,2805.7z"/>
				<path class="st4" d="M3893.8,2805.7c-4.1,0-7.5-3.4-7.5-7.5v-64c0-4.1,3.4-7.5,7.5-7.5c4.1,0,7.5,3.4,7.5,7.5v64
					C3901.3,2802.4,3898,2805.7,3893.8,2805.7z"/>
				<path class="st4" d="M3927.6,2805.7c-4.1,0-7.5-3.4-7.5-7.5v-64c0-4.1,3.4-7.5,7.5-7.5c4.1,0,7.5,3.4,7.5,7.5v64
					C3935.1,2802.4,3931.7,2805.7,3927.6,2805.7z"/>
				<path class="st4" d="M3961.4,2805.7c-4.1,0-7.5-3.4-7.5-7.5v-64c0-4.1,3.4-7.5,7.5-7.5s7.5,3.4,7.5,7.5v64
					C3968.9,2802.4,3965.5,2805.7,3961.4,2805.7z"/>
				<path class="st4" d="M3995.1,2805.7c-4.1,0-7.5-3.4-7.5-7.5v-64c0-4.1,3.4-7.5,7.5-7.5s7.5,3.4,7.5,7.5v64
					C4002.6,2802.4,3999.3,2805.7,3995.1,2805.7z"/>
				<path class="st4" d="M4028.9,2805.7c-4.1,0-7.5-3.4-7.5-7.5v-64c0-4.1,3.4-7.5,7.5-7.5s7.5,3.4,7.5,7.5v64
					C4036.4,2802.4,4033,2805.7,4028.9,2805.7z"/>
				<path class="st4" d="M4062.6,2805.7c-4.1,0-7.5-3.4-7.5-7.5v-64c0-4.1,3.4-7.5,7.5-7.5s7.5,3.4,7.5,7.5v64
					C4070.1,2802.4,4066.8,2805.7,4062.6,2805.7z"/>
			</g>
			<g>
				<path class="st3" d="M4037.4,2959.6c0-15.7-12.7-28.4-28.4-28.4h-220.7v258.7c0,11.7,9.6,21.3,21.3,21.3h227.8V2959.6z"/>
				<path class="st4" d="M4037.4,3218.7h-227.8c-15.9,0-28.8-12.9-28.8-28.8v-258.7c0-4.1,3.4-7.5,7.5-7.5H4009
					c19.8,0,35.9,16.1,35.9,35.9v251.6C4044.9,3215.3,4041.5,3218.7,4037.4,3218.7z M3795.8,2938.6v251.2c0,7.6,6.2,13.8,13.8,13.8
					h220.3v-244.1c0-11.5-9.4-20.9-20.9-20.9H3795.8z"/>
			</g>
			<path class="st4" d="M4093.6,3084.1c-4.1,0-7.5-3.4-7.5-7.5v-133c0-8.8-5.7-21.6-12.2-27.4l-37.4-33.8c-3.1-2.8-3.3-7.5-0.5-10.6
				c2.8-3.1,7.5-3.3,10.6-0.5l37.4,33.8c9.6,8.7,17.1,25.6,17.1,38.6v133C4101.1,3080.8,4097.7,3084.1,4093.6,3084.1z"/>
			<path class="st4" d="M4093.6,3141c-4.1,0-7.5-3.4-7.5-7.5v-23.7c0-4.1,3.4-7.5,7.5-7.5s7.5,3.4,7.5,7.5v23.7
				C4101.1,3137.6,4097.7,3141,4093.6,3141z"/>
			<path class="st4" d="M3943.8,2831.3h-56.4c-4.1,0-7.5-3.4-7.5-7.5c0-4.1,3.4-7.5,7.5-7.5h56.4c4.1,0,7.5,3.4,7.5,7.5
				C3951.3,2828,3948,2831.3,3943.8,2831.3z"/>
			<path class="st4" d="M3995.1,2831.3h-18.2c-4.1,0-7.5-3.4-7.5-7.5c0-4.1,3.4-7.5,7.5-7.5h18.2c4.1,0,7.5,3.4,7.5,7.5
				C4002.6,2828,3999.3,2831.3,3995.1,2831.3z"/>
			<path class="st4" d="M3907.5,3149.8h-87.1c-4.1,0-7.5-3.4-7.5-7.5c0-4.1,3.4-7.5,7.5-7.5h87.1c4.1,0,7.5,3.4,7.5,7.5
				C3915,3146.4,3911.7,3149.8,3907.5,3149.8z"/>
			<path class="st4" d="M3961.4,3149.8h-19.2c-4.1,0-7.5-3.4-7.5-7.5c0-4.1,3.4-7.5,7.5-7.5h19.2c4.1,0,7.5,3.4,7.5,7.5
				C3968.9,3146.4,3965.5,3149.8,3961.4,3149.8z"/>
			<path class="st4" d="M3961.4,3179.6h-140.9c-4.1,0-7.5-3.4-7.5-7.5s3.4-7.5,7.5-7.5h140.9c4.1,0,7.5,3.4,7.5,7.5
				S3965.5,3179.6,3961.4,3179.6z"/>
			<path class="st4" d="M3871.8,3117.3h-51.3c-4.1,0-7.5-3.4-7.5-7.5c0-4.1,3.4-7.5,7.5-7.5h51.3c4.1,0,7.5,3.4,7.5,7.5
				C3879.3,3113.9,3875.9,3117.3,3871.8,3117.3z"/>
		</g>
		<g>
			<g>
				<path class="st5" d="M3938,2996.7l-61,53.2c14.7,16.9,40.3,18.6,57.1,3.9C3951,3039.2,3952.7,3013.6,3938,2996.7z"/>
				<path class="st4" d="M3907.5,3071.3L3907.5,3071.3c-13.9,0-27.1-6-36.2-16.4c-2.7-3.1-2.4-7.9,0.7-10.6l61-53.2
					c3.1-2.7,7.9-2.4,10.6,0.7c8.4,9.7,12.6,22,11.7,34.8c-0.9,12.8-6.7,24.5-16.3,32.9C3930.3,3067.1,3919.1,3071.3,3907.5,3071.3z
					 M3888.2,3050.1c5.6,4,12.3,6.2,19.3,6.2c8,0,15.7-2.9,21.7-8.1c6.6-5.8,10.6-13.8,11.2-22.6c0.4-6.2-0.9-12.3-3.8-17.7
					L3888.2,3050.1z"/>
			</g>
			<g>
				<path class="st5" d="M3880.9,2992.8c-16.8,14.7-18.6,40.3-3.9,57.1l61-53.2C3923.3,2979.9,3897.8,2978.1,3880.9,2992.8z"/>
				<path class="st4" d="M3877,3057.5c-0.2,0-0.3,0-0.5,0c-2-0.1-3.8-1.1-5.1-2.6c-17.4-19.9-15.3-50.3,4.6-67.7
					c8.7-7.6,19.9-11.8,31.5-11.8c13.9,0,27.1,6,36.2,16.4c2.7,3.1,2.4,7.9-0.7,10.6l-61,53.2
					C3880.6,3056.8,3878.8,3057.5,3877,3057.5z M3907.5,2990.4c-8,0-15.6,2.9-21.7,8.1c-11.8,10.3-14.5,27.1-7.5,40.3l48.4-42.2
					C3921.2,2992.6,3914.5,2990.4,3907.5,2990.4z"/>
			</g>
		</g>
		<g>
			<g>
				<path class="st8" d="M4110.1,3091.3c14.5-6.8,31.8-0.6,38.6,14c6.8,14.5,0.6,31.8-14,38.6l-46.7,21.9l-24.7-52.6L4110.1,3091.3z
					"/>
				<path class="st4" d="M4088,3173.3c-0.9,0-1.7-0.1-2.6-0.4c-1.9-0.7-3.4-2.1-4.2-3.9l-24.7-52.6c-1.8-3.8-0.1-8.2,3.6-10
					l46.7-21.9c4.9-2.3,10.1-3.5,15.5-3.5c14.1,0,27.1,8.3,33.1,21c4.1,8.8,4.6,18.8,1.3,27.9c-3.3,9.2-10,16.5-18.9,20.7
					l-46.7,21.9C4090.2,3173.1,4089.1,3173.3,4088,3173.3z M4073.4,3116.8l18.3,39l39.9-18.7c5.2-2.4,9.2-6.8,11.1-12.2
					c2-5.4,1.7-11.3-0.8-16.5c-3.5-7.5-11.2-12.4-19.5-12.4c-3.2,0-6.2,0.7-9.1,2L4073.4,3116.8z"/>
			</g>
			<g>
				<path class="st6" d="M4005,3140.6l58.4-27.4l24.7,52.6l-58.4,27.4c-14.5,6.8-31.8,0.6-38.6-14
					C3984.2,3164.7,3990.4,3147.4,4005,3140.6z"/>
				<path class="st4" d="M4017.3,3203.5c-14.1,0-27.1-8.3-33.1-21c-4.1-8.8-4.6-18.8-1.3-27.9c3.3-9.2,10-16.5,18.8-20.7l58.4-27.4
					c3.8-1.7,8.2-0.1,10,3.6l24.7,52.6c0.8,1.8,0.9,3.9,0.3,5.7c-0.7,1.9-2.1,3.4-3.9,4.2l-58.4,27.4
					C4027.9,3202.3,4022.7,3203.5,4017.3,3203.5z M4059.8,3123.2l-51.6,24.2c-5.2,2.4-9.2,6.8-11.1,12.2c-2,5.4-1.7,11.3,0.8,16.5
					c3.5,7.5,11.2,12.4,19.5,12.4c3.2,0,6.2-0.7,9.1-2l51.6-24.2L4059.8,3123.2z"/>
			</g>
		</g>
		<g>
			<g>
				<path class="st5" d="M4077.8,3026.6l80.8,34c9.4-22.3-1.1-48-23.4-57.4C4112.9,2993.8,4087.2,3004.3,4077.8,3026.6z"/>
				<path class="st4" d="M4158.6,3068.1c-1,0-2-0.2-2.9-0.6l-80.8-34c-3.8-1.6-5.6-6-4-9.8c8-19.1,26.6-31.4,47.3-31.4
					c6.8,0,13.5,1.4,19.9,4c26.1,11,38.4,41.1,27.4,67.2c-0.8,1.8-2.2,3.3-4.1,4C4160.5,3067.9,4159.6,3068.1,4158.6,3068.1z
					 M4088.3,3022.9l65.5,27.6c3.2-16.5-5.5-33.6-21.6-40.4c-4.5-1.9-9.2-2.9-14.1-2.9C4106.1,3007.2,4095,3013.2,4088.3,3022.9z"/>
			</g>
			<g>
				<path class="st5" d="M4101.2,3084c22.3,9.4,48-1.1,57.4-23.4l-80.8-34C4068.4,3048.9,4078.9,3074.6,4101.2,3084z"/>
				<path class="st4" d="M4118.2,3094.9C4118.2,3094.9,4118.2,3094.9,4118.2,3094.9c-6.8,0-13.5-1.4-19.9-4
					c-12.6-5.3-22.4-15.2-27.6-27.9c-5.2-12.7-5.1-26.7,0.2-39.3c1.6-3.8,6-5.6,9.8-4l80.8,34c1.8,0.8,3.3,2.2,4,4.1
					c0.8,1.8,0.7,3.9,0,5.7C4157.5,3082.6,4138.9,3094.9,4118.2,3094.9z M4082.5,3036.7c-1.3,6.9-0.7,14,2,20.6
					c3.7,9,10.6,16,19.6,19.8c4.5,1.9,9.2,2.9,14.1,2.9c12.1,0,23.2-6,29.9-15.6L4082.5,3036.7z"/>
			</g>
		</g>
	</g>
	<g>
		<line class="st5" x1="833.6" y1="3218.7" x2="3608.4" y2="3218.7"/>
		<path class="st4" d="M3608.4,3226.2H833.6c-4.1,0-7.5-3.4-7.5-7.5c0-4.1,3.4-7.5,7.5-7.5h2774.8c4.1,0,7.5,3.4,7.5,7.5
			C3615.9,3222.8,3612.5,3226.2,3608.4,3226.2z"/>
	</g>
	<g>
		<line class="st5" x1="473.7" y1="3218.7" x2="623.8" y2="3218.7"/>
		<path class="st4" d="M623.8,3226.2H473.7c-4.1,0-7.5-3.4-7.5-7.5c0-4.1,3.4-7.5,7.5-7.5h150.1c4.1,0,7.5,3.4,7.5,7.5
			C631.3,3222.8,628,3226.2,623.8,3226.2z"/>
	</g>
	<g>
		<line class="st5" x1="692.6" y1="3218.7" x2="772.8" y2="3218.7"/>
		<path class="st4" d="M772.8,3226.2h-80.2c-4.1,0-7.5-3.4-7.5-7.5c0-4.1,3.4-7.5,7.5-7.5h80.2c4.1,0,7.5,3.4,7.5,7.5
			C780.3,3222.8,777,3226.2,772.8,3226.2z"/>
	</g>
	<path class="st4" d="M3750.5,3226.2h-87.1c-4.1,0-7.5-3.4-7.5-7.5c0-4.1,3.4-7.5,7.5-7.5h87.1c4.1,0,7.5,3.4,7.5,7.5
		C3758,3222.8,3754.7,3226.2,3750.5,3226.2z"/>
	<path class="st4" d="M3892.1,3226.2h-99.3c-4.1,0-7.5-3.4-7.5-7.5c0-4.1,3.4-7.5,7.5-7.5h99.3c4.1,0,7.5,3.4,7.5,7.5
		C3899.6,3222.8,3896.2,3226.2,3892.1,3226.2z"/>
	<path class="st4" d="M4393.9,3226.2h-463.4c-4.1,0-7.5-3.4-7.5-7.5c0-4.1,3.4-7.5,7.5-7.5h463.4c4.1,0,7.5,3.4,7.5,7.5
		C4401.4,3222.8,4398,3226.2,4393.9,3226.2z"/>
	<path class="st4" d="M4522.2,3226.2h-88.1c-4.1,0-7.5-3.4-7.5-7.5c0-4.1,3.4-7.5,7.5-7.5h88.1c4.1,0,7.5,3.4,7.5,7.5
		C4529.7,3222.8,4526.4,3226.2,4522.2,3226.2z"/>
	<g>
		<g>
			<line class="st5" x1="4288.8" y1="3062.9" x2="4288.8" y2="3218.7"/>
			<path class="st4" d="M4288.8,3226.2c-4.1,0-7.5-3.4-7.5-7.5v-155.8c0-4.1,3.4-7.5,7.5-7.5c4.1,0,7.5,3.4,7.5,7.5v155.8
				C4296.3,3222.8,4293,3226.2,4288.8,3226.2z"/>
		</g>
		<g>
			<line class="st5" x1="4444.6" y1="3118.7" x2="4496" y2="3155.9"/>
			<path class="st4" d="M4496,3163.4c-1.5,0-3.1-0.5-4.4-1.4l-51.4-37.2c-3.4-2.4-4.1-7.1-1.7-10.5c2.4-3.4,7.1-4.1,10.5-1.7
				l51.4,37.2c3.4,2.4,4.1,7.1,1.7,10.5C4500.7,3162.3,4498.4,3163.4,4496,3163.4z"/>
		</g>
		<g>
			<line class="st5" x1="4496" y1="3000.1" x2="4496" y2="3218.7"/>
			<path class="st4" d="M4496,3226.2c-4.1,0-7.5-3.4-7.5-7.5v-218.6c0-4.1,3.4-7.5,7.5-7.5s7.5,3.4,7.5,7.5v218.6
				C4503.5,3222.8,4500.2,3226.2,4496,3226.2z"/>
		</g>
		<circle class="st3" cx="4496" cy="2906.5" r="106.3"/>
		<circle class="st3" cx="4288.8" cy="2996.2" r="75.8"/>
		<g>
			<line class="st5" x1="4219" y1="3138.5" x2="4219" y2="3218.7"/>
			<path class="st4" d="M4219,3226.2c-4.1,0-7.5-3.4-7.5-7.5v-80.2c0-4.1,3.4-7.5,7.5-7.5c4.1,0,7.5,3.4,7.5,7.5v80.2
				C4226.5,3222.8,4223.1,3226.2,4219,3226.2z"/>
		</g>
		<circle class="st3" cx="4219" cy="3104.2" r="39"/>
		<ellipse class="st3" cx="4409.4" cy="3084" rx="52.4" ry="52.4"/>
		<g>
			<line class="st5" x1="4538.6" y1="3087.4" x2="4501.2" y2="3114.5"/>
			<path class="st4" d="M4501.2,3122c-2.3,0-4.6-1.1-6.1-3.1c-2.4-3.4-1.7-8,1.7-10.5l37.4-27.1c3.4-2.4,8-1.7,10.5,1.7
				c2.4,3.4,1.7,8-1.7,10.5l-37.4,27.1C4504.3,3121.5,4502.8,3122,4501.2,3122z"/>
		</g>
		<circle class="st3" cx="4564.2" cy="3062.2" r="38.1"/>
	</g>
	<g>
		<g>
			<line class="st5" x1="618.3" y1="3094.3" x2="618.3" y2="3218.7"/>
			<path class="st4" d="M618.3,3226.2c-4.1,0-7.5-3.4-7.5-7.5v-124.4c0-4.1,3.4-7.5,7.5-7.5s7.5,3.4,7.5,7.5v124.4
				C625.8,3222.8,622.5,3226.2,618.3,3226.2z"/>
		</g>
		<g>
			<line class="st5" x1="482.5" y1="3107.5" x2="539.7" y2="3148.9"/>
			<path class="st4" d="M539.7,3156.4c-1.5,0-3.1-0.5-4.4-1.4l-57.2-41.4c-3.4-2.4-4.1-7.1-1.7-10.5c2.4-3.4,7.1-4.1,10.5-1.7
				l57.2,41.4c3.4,2.4,4.1,7.1,1.7,10.5C544.3,3155.3,542,3156.4,539.7,3156.4z"/>
		</g>
		<g>
			<line class="st5" x1="539.7" y1="2975.7" x2="539.7" y2="3218.7"/>
			<path class="st4" d="M539.7,3226.2c-4.1,0-7.5-3.4-7.5-7.5v-243c0-4.1,3.4-7.5,7.5-7.5s7.5,3.4,7.5,7.5v243
				C547.2,3222.8,543.8,3226.2,539.7,3226.2z"/>
		</g>
		<circle class="st3" cx="539.7" cy="2871.6" r="118.2"/>
		<circle class="st3" cx="618.3" cy="3041.1" r="60.5"/>
		<circle class="st3" cx="443.4" cy="3068.9" r="58.2"/>
	</g>
	<g>
		<g>
			<g>
				<path class="st5" d="M1271.8,1529c0,5.8-51.6,62.6-115.2,62.6c-63.6,0-115.2-57.7-115.2-62.6c0-7.5,51.6-62.6,115.2-62.6
					C1220.2,1466.4,1271.8,1524.9,1271.8,1529z"/>
				<path class="st4" d="M1156.5,1599.1c-35.6,0-66.3-16.8-85.9-30.9c-14.9-10.7-36.9-30.6-36.9-39.2c0-9.8,21.6-29.4,36.9-40.2
					c19.3-13.6,49.9-29.9,85.8-29.9c35.5,0,66.3,17,85.9,31.2c12.8,9.3,36.8,30.3,36.8,38.9
					C1279.3,1541.9,1221.1,1599.1,1156.5,1599.1z M1049.6,1528.6c8.7,12.1,53.7,55.4,106.9,55.4c53,0,97.6-42.4,106.6-54.8
					c-9.1-11.3-52.8-55.4-106.6-55.4C1100.9,1473.9,1057.1,1517.5,1049.6,1528.6z"/>
			</g>
			<g>
				<circle class="st3" cx="1156.5" cy="1529" r="54"/>
				<path class="st4" d="M1156.5,1590.5c-33.9,0-61.5-27.6-61.5-61.5c0-33.9,27.6-61.5,61.5-61.5c33.9,0,61.5,27.6,61.5,61.5
					C1218.1,1562.9,1190.5,1590.5,1156.5,1590.5z M1156.5,1482.4c-25.7,0-46.5,20.9-46.5,46.5c0,25.7,20.9,46.5,46.5,46.5
					c25.7,0,46.5-20.9,46.5-46.5C1203.1,1503.3,1182.2,1482.4,1156.5,1482.4z"/>
			</g>
			<circle class="st4" cx="1156.5" cy="1529" r="18.4"/>
			<circle class="st5" cx="1140.2" cy="1517.6" r="9.1"/>
		</g>
	</g>
	<g>
		<g>
			<path class="st4" d="M1330.5,2258.9h-272.7c-4.1,0-7.5-3.4-7.5-7.5c0-4.1,3.4-7.5,7.5-7.5h272.7c4.1,0,7.5,3.4,7.5,7.5
				C1338,2255.6,1334.7,2258.9,1330.5,2258.9z"/>
			<path class="st4" d="M1330.5,2125.8h-99.2c-4.1,0-7.5-3.4-7.5-7.5c0-4.1,3.4-7.5,7.5-7.5h99.2c4.1,0,7.5,3.4,7.5,7.5
				C1338,2122.4,1334.7,2125.8,1330.5,2125.8z"/>
			<path class="st4" d="M1330.5,2170.4H1120c-4.1,0-7.5-3.4-7.5-7.5s3.4-7.5,7.5-7.5h210.6c4.1,0,7.5,3.4,7.5,7.5
				S1334.7,2170.4,1330.5,2170.4z"/>
			<path class="st4" d="M1330.5,2217.8h-90c-4.1,0-7.5-3.4-7.5-7.5s3.4-7.5,7.5-7.5h90c4.1,0,7.5,3.4,7.5,7.5
				S1334.7,2217.8,1330.5,2217.8z"/>
			<path class="st4" d="M1200,2217.8H985.4c-4.1,0-7.5-3.4-7.5-7.5s3.4-7.5,7.5-7.5H1200c4.1,0,7.5,3.4,7.5,7.5
				S1204.1,2217.8,1200,2217.8z"/>
			<path class="st4" d="M1182.7,2125.8h-151.2c-4.1,0-7.5-3.4-7.5-7.5c0-4.1,3.4-7.5,7.5-7.5h151.2c4.1,0,7.5,3.4,7.5,7.5
				C1190.2,2122.4,1186.9,2125.8,1182.7,2125.8z"/>
			<path class="st4" d="M1330.5,2086.6h-272.7c-4.1,0-7.5-3.4-7.5-7.5c0-4.1,3.4-7.5,7.5-7.5h272.7c4.1,0,7.5,3.4,7.5,7.5
				C1338,2083.2,1334.7,2086.6,1330.5,2086.6z"/>
		</g>
		<g>
			<g>
				<g>
					<path class="st5" d="M1284.1,2206.3c-14,14-14,36.8,0,50.8l15.9,15.9c14,14,36.8,14,50.8,0l164.6-164.6c14-14,14-36.8,0-50.8
						l-15.9-15.9c-14-14-36.8-14-50.8,0L1284.1,2206.3z"/>
					<path class="st4" d="M1325.4,2291C1325.4,2291,1325.4,2291,1325.4,2291c-11.6,0-22.5-4.5-30.7-12.7l-15.9-15.9
						c-16.9-16.9-16.9-44.5,0-61.4l164.6-164.6c8.2-8.2,19.1-12.7,30.7-12.7c11.6,0,22.5,4.5,30.7,12.7l15.9,15.9
						c16.9,16.9,16.9,44.5,0,61.4l-164.6,164.6C1347.9,2286.5,1337,2291,1325.4,2291z M1474.1,2038.7c-7.6,0-14.7,3-20.1,8.3
						l-164.6,164.6c-11.1,11.1-11.1,29.1,0,40.2l15.9,15.9c5.4,5.4,12.5,8.3,20.1,8.3c0,0,0,0,0,0c7.6,0,14.7-3,20.1-8.3
						l164.6-164.6c11.1-11.1,11.1-29.1,0-40.2l-15.9-15.9C1488.8,2041.6,1481.7,2038.7,1474.1,2038.7z"/>
				</g>
				<g>
					<g>
						<path class="st5" d="M1333,2157.4l-48.9-48.9c-14-14-14-36.8,0-50.8l15.9-15.9c14-14,36.8-14,50.8,0l48.9,48.9L1333,2157.4z"
							/>
						<path class="st4" d="M1333,2164.9c-1.9,0-3.8-0.7-5.3-2.2l-48.9-48.9c-16.9-16.9-16.9-44.5,0-61.4l15.9-15.9
							c8.2-8.2,19.1-12.7,30.7-12.7c11.6,0,22.5,4.5,30.7,12.7l48.9,48.9c2.9,2.9,2.9,7.7,0,10.6l-66.7,66.7
							C1336.8,2164.1,1334.9,2164.9,1333,2164.9z M1325.4,2038.7c-7.6,0-14.7,3-20.1,8.3l-15.9,15.9c-11.1,11.1-11.1,29.1,0,40.2
							l43.6,43.6l56.1-56.1l-43.6-43.6C1340.1,2041.6,1333,2038.7,1325.4,2038.7z"/>
					</g>
					<g>
						<path class="st5" d="M1466.4,2157.4l48.9,48.9c14,14,14,36.8,0,50.8l-15.9,15.9c-14,14-36.8,14-50.8,0l-48.9-48.9
							L1466.4,2157.4z"/>
						<path class="st4" d="M1474.1,2291c-11.6,0-22.5-4.5-30.7-12.7l-48.9-48.9c-2.9-2.9-2.9-7.7,0-10.6l66.7-66.7
							c2.9-2.9,7.7-2.9,10.6,0l48.9,48.9c16.9,16.9,16.9,44.5,0,61.4l-15.9,15.9C1496.6,2286.5,1485.7,2291,1474.1,2291z
							 M1410.3,2224.1l43.6,43.6c5.4,5.4,12.5,8.3,20.1,8.3c7.6,0,14.7-3,20.1-8.3l15.9-15.9c11.1-11.1,11.1-29.1,0-40.2l-43.6-43.6
							L1410.3,2224.1z"/>
					</g>
				</g>
				<g>
					<path class="st4" d="M1333.9,2069.9c-1.9,0-3.8-0.7-5.3-2.2c-2.9-2.9-2.9-7.7,0-10.6l2.1-2.1c2.9-2.9,7.7-2.9,10.6,0
						c2.9,2.9,2.9,7.7,0,10.6l-2.1,2.1C1337.7,2069.1,1335.8,2069.9,1333.9,2069.9z"/>
					<path class="st4" d="M1318.2,2085.5c-1.9,0-3.8-0.7-5.3-2.2c-2.9-2.9-2.9-7.7,0-10.6l2.1-2.1c2.9-2.9,7.7-2.9,10.6,0
						c2.9,2.9,2.9,7.7,0,10.6l-2.1,2.1C1322,2084.8,1320.1,2085.5,1318.2,2085.5z"/>
					<path class="st4" d="M1302.6,2101.1c-1.9,0-3.8-0.7-5.3-2.2c-2.9-2.9-2.9-7.7,0-10.6l2.1-2.1c2.9-2.9,7.7-2.9,10.6,0
						c2.9,2.9,2.9,7.7,0,10.6l-2.1,2.1C1306.4,2100.4,1304.5,2101.1,1302.6,2101.1z"/>
					<path class="st4" d="M1353.9,2089.9c-1.9,0-3.8-0.7-5.3-2.2c-2.9-2.9-2.9-7.7,0-10.6l2.1-2.1c2.9-2.9,7.7-2.9,10.6,0
						c2.9,2.9,2.9,7.7,0,10.6l-2.1,2.1C1357.8,2089.2,1355.9,2089.9,1353.9,2089.9z"/>
					<path class="st4" d="M1338.3,2105.6c-1.9,0-3.8-0.7-5.3-2.2c-2.9-2.9-2.9-7.7,0-10.6l2.1-2.1c2.9-2.9,7.7-2.9,10.6,0
						c2.9,2.9,2.9,7.7,0,10.6l-2.1,2.1C1342.1,2104.8,1340.2,2105.6,1338.3,2105.6z"/>
					<path class="st4" d="M1322.7,2121.2c-1.9,0-3.8-0.7-5.3-2.2c-2.9-2.9-2.9-7.7,0-10.6l2.1-2.1c2.9-2.9,7.7-2.9,10.6,0
						c2.9,2.9,2.9,7.7,0,10.6l-2.1,2.1C1326.5,2120.5,1324.6,2121.2,1322.7,2121.2z"/>
					<path class="st4" d="M1472.3,2208.3c-1.9,0-3.8-0.7-5.3-2.2c-2.9-2.9-2.9-7.7,0-10.6l2.1-2.1c2.9-2.9,7.7-2.9,10.6,0
						c2.9,2.9,2.9,7.7,0,10.6l-2.1,2.1C1476.2,2207.6,1474.2,2208.3,1472.3,2208.3z"/>
					<path class="st4" d="M1456.7,2224c-1.9,0-3.8-0.7-5.3-2.2c-2.9-2.9-2.9-7.7,0-10.6l2.1-2.1c2.9-2.9,7.7-2.9,10.6,0
						c2.9,2.9,2.9,7.7,0,10.6l-2.1,2.1C1460.5,2223.2,1458.6,2224,1456.7,2224z"/>
					<path class="st4" d="M1441,2239.6c-1.9,0-3.8-0.7-5.3-2.2c-2.9-2.9-2.9-7.7,0-10.6l2.1-2.1c2.9-2.9,7.7-2.9,10.6,0
						c2.9,2.9,2.9,7.7,0,10.6l-2.1,2.1C1444.9,2238.9,1443,2239.6,1441,2239.6z"/>
					<path class="st4" d="M1492.4,2228.4c-1.9,0-3.8-0.7-5.3-2.2c-2.9-2.9-2.9-7.7,0-10.6l2.1-2.1c2.9-2.9,7.7-2.9,10.6,0
						c2.9,2.9,2.9,7.7,0,10.6l-2.1,2.1C1496.2,2227.7,1494.3,2228.4,1492.4,2228.4z"/>
					<path class="st4" d="M1476.8,2244c-1.9,0-3.8-0.7-5.3-2.2c-2.9-2.9-2.9-7.7,0-10.6l2.1-2.1c2.9-2.9,7.7-2.9,10.6,0
						c2.9,2.9,2.9,7.7,0,10.6l-2.1,2.1C1480.6,2243.3,1478.7,2244,1476.8,2244z"/>
					<path class="st4" d="M1461.1,2259.7c-1.9,0-3.8-0.7-5.3-2.2c-2.9-2.9-2.9-7.7,0-10.6l2.1-2.1c2.9-2.9,7.7-2.9,10.6,0
						c2.9,2.9,2.9,7.7,0,10.6l-2.1,2.1C1465,2259,1463,2259.7,1461.1,2259.7z"/>
				</g>
				<g>
					
						<rect x="1359.5" y="2130.3" transform="matrix(0.7071 -0.7071 0.7071 0.7071 -1115.4944 1621.5223)" class="st8" width="80.5" height="54.1"/>
					<path class="st4" d="M1390.4,2212.4L1390.4,2212.4c-2,0-3.9-0.8-5.3-2.2l-38.3-38.3c-2.9-2.9-2.9-7.7,0-10.6l56.9-56.9
						c1.4-1.4,3.3-2.2,5.3-2.2l0,0c2,0,3.9,0.8,5.3,2.2l38.3,38.3c2.9,2.9,2.9,7.7,0,10.6l-56.9,56.9
						C1394.3,2211.6,1392.4,2212.4,1390.4,2212.4z M1362.7,2166.7l27.7,27.7l46.3-46.3l-27.7-27.7L1362.7,2166.7z"/>
				</g>
				<g>
					<path class="st4" d="M1496.8,2101.1c-1.9,0-3.8-0.7-5.3-2.2l-2.1-2.1c-2.9-2.9-2.9-7.7,0-10.6c2.9-2.9,7.7-2.9,10.6,0l2.1,2.1
						c2.9,2.9,2.9,7.7,0,10.6C1500.7,2100.4,1498.8,2101.1,1496.8,2101.1z"/>
					<path class="st4" d="M1481.2,2085.5c-1.9,0-3.8-0.7-5.3-2.2l-2.1-2.1c-2.9-2.9-2.9-7.7,0-10.6s7.7-2.9,10.6,0l2.1,2.1
						c2.9,2.9,2.9,7.7,0,10.6C1485,2084.8,1483.1,2085.5,1481.2,2085.5z"/>
					<path class="st4" d="M1465.6,2069.9c-1.9,0-3.8-0.7-5.3-2.2l-2.1-2.1c-2.9-2.9-2.9-7.7,0-10.6c2.9-2.9,7.7-2.9,10.6,0l2.1,2.1
						c2.9,2.9,2.9,7.7,0,10.6C1469.4,2069.1,1467.5,2069.9,1465.6,2069.9z"/>
					<path class="st4" d="M1476.8,2121.2c-1.9,0-3.8-0.7-5.3-2.2l-2.1-2.1c-2.9-2.9-2.9-7.7,0-10.6c2.9-2.9,7.7-2.9,10.6,0l2.1,2.1
						c2.9,2.9,2.9,7.7,0,10.6C1480.6,2120.5,1478.7,2121.2,1476.8,2121.2z"/>
					<path class="st4" d="M1461.1,2105.6c-1.9,0-3.8-0.7-5.3-2.2l-2.1-2.1c-2.9-2.9-2.9-7.7,0-10.6c2.9-2.9,7.7-2.9,10.6,0l2.1,2.1
						c2.9,2.9,2.9,7.7,0,10.6C1465,2104.8,1463,2105.6,1461.1,2105.6z"/>
					<path class="st4" d="M1445.5,2089.9c-1.9,0-3.8-0.7-5.3-2.2l-2.1-2.1c-2.9-2.9-2.9-7.7,0-10.6c2.9-2.9,7.7-2.9,10.6,0l2.1,2.1
						c2.9,2.9,2.9,7.7,0,10.6C1449.3,2089.2,1447.4,2089.9,1445.5,2089.9z"/>
					<path class="st4" d="M1358.4,2239.6c-1.9,0-3.8-0.7-5.3-2.2l-2.1-2.1c-2.9-2.9-2.9-7.7,0-10.6c2.9-2.9,7.7-2.9,10.6,0l2.1,2.1
						c2.9,2.9,2.9,7.7,0,10.6C1362.2,2238.9,1360.3,2239.6,1358.4,2239.6z"/>
					<path class="st4" d="M1342.7,2224c-1.9,0-3.8-0.7-5.3-2.2l-2.1-2.1c-2.9-2.9-2.9-7.7,0-10.6c2.9-2.9,7.7-2.9,10.6,0l2.1,2.1
						c2.9,2.9,2.9,7.7,0,10.6C1346.6,2223.2,1344.7,2224,1342.7,2224z"/>
					<path class="st4" d="M1327.1,2208.3c-1.9,0-3.8-0.7-5.3-2.2l-2.1-2.1c-2.9-2.9-2.9-7.7,0-10.6c2.9-2.9,7.7-2.9,10.6,0l2.1,2.1
						c2.9,2.9,2.9,7.7,0,10.6C1330.9,2207.6,1329,2208.3,1327.1,2208.3z"/>
					<path class="st4" d="M1338.3,2259.7c-1.9,0-3.8-0.7-5.3-2.2l-2.1-2.1c-2.9-2.9-2.9-7.7,0-10.6c2.9-2.9,7.7-2.9,10.6,0l2.1,2.1
						c2.9,2.9,2.9,7.7,0,10.6C1342.1,2258.9,1340.2,2259.7,1338.3,2259.7z"/>
					<path class="st4" d="M1322.7,2244c-1.9,0-3.8-0.7-5.3-2.2l-2.1-2.1c-2.9-2.9-2.9-7.7,0-10.6c2.9-2.9,7.7-2.9,10.6,0l2.1,2.1
						c2.9,2.9,2.9,7.7,0,10.6C1326.5,2243.3,1324.6,2244,1322.7,2244z"/>
					<path class="st4" d="M1307,2228.4c-1.9,0-3.8-0.7-5.3-2.2l-2.1-2.1c-2.9-2.9-2.9-7.7,0-10.6c2.9-2.9,7.7-2.9,10.6,0l2.1,2.1
						c2.9,2.9,2.9,7.7,0,10.6C1310.9,2227.7,1308.9,2228.4,1307,2228.4z"/>
				</g>
			</g>
		</g>
	</g>
	<g>
		<g>
			<g>
				<path class="st5" d="M3373.7,1337.7c0-20.6-4-32.9-13-45.5c-14-19.5-41.9-26.4-64.6-17.8c-7.5,2.9-15.1,9.9-15.1,11.2
					c0-1.4-7.4-7.5-15.1-11.2c-21.8-10.6-50.6-1.7-64.6,17.8c-9,12.5-12.8,24.6-12.8,44.4c0,19.6,5.6,39.2,10,58.2
					c11.6,49.3,23.4,73.9,34.4,73.9c14.5,0,13.4-20.7,23.1-46.2c9.7-25.5,24.9-24.3,24.9-24.3s15.2-1.2,24.9,24.3
					c9.7,25.5,8.7,46.2,23.1,46.2c11,0,22.9-24.6,34.4-73.9C3367.9,1375.8,3373.7,1357.3,3373.7,1337.7z"/>
				<path class="st4" d="M3329.1,1476.2c-15.7,0-19.5-14.5-23.6-29.8c-1.7-6.4-3.6-13.6-6.5-21.2c-7-18.3-16.1-19.4-17.4-19.5
					c-0.6,0.1-0.4,0.1-1,0c-1.3,0.1-10.5,1.2-17.4,19.5c-2.9,7.6-4.8,14.8-6.5,21.2c-4.1,15.3-7.9,29.8-23.6,29.8
					c-10.7,0-25.1-9.1-41.7-79.6c-0.7-2.8-1.3-5.7-2-8.5c-4-16.6-8.2-33.8-8.2-51.4c0-20.8,4-34.5,14.2-48.8
					c11.3-15.7,30.6-25.5,50.4-25.5c8.4,0,16.4,1.8,23.6,5.3c1.1,0.5,6.8,3.4,11.7,7.2c4.7-3.7,10.2-6.6,12.6-7.5
					c7.2-2.7,14.9-4.1,22.9-4.1c20.6,0,39.4,9.2,50.5,24.6c10.4,14.5,14.4,28.4,14.4,49.8c0,16.7-4,32.6-7.8,48
					c-0.9,3.6-1.8,7.2-2.6,10.8C3354.2,1467.2,3339.8,1476.2,3329.1,1476.2z M3245.6,1277.4c-14.9,0-29.9,7.5-38.2,19.2
					c-8.3,11.6-11.4,22.4-11.4,40c0,15.8,4,32.1,7.8,47.9c0.7,2.9,1.4,5.7,2.1,8.6c15.3,65.3,27,68.1,27.1,68.1
					c3.6,0,5.3-4.2,9.1-18.6c1.8-6.8,3.8-14.4,7-22.7c10.6-27.8,28.2-29.2,31.6-29.2c0.2,0,0.4,0,0.7,0c3.4,0,21,1.4,31.6,29.2
					c3.2,8.3,5.2,16,7,22.7c3.8,14.4,5.5,18.6,9.1,18.6c0.2,0,11.8-3,27.1-68.1c0.9-3.7,1.8-7.4,2.7-11c3.8-15.2,7.3-29.5,7.3-44.4
					c0-18.2-3.1-29.3-11.6-41.1c-8.1-11.3-22.8-18.3-38.3-18.3c-6.1,0-12,1.1-17.5,3.2c-4.6,1.8-9.5,5.7-11,7.4
					c-1.2,2.6-3.8,4.4-6.8,4.4c-2.9,0-5.5-1.7-6.7-4.1c-1.5-1.5-6.2-5.1-11.7-7.9C3257.5,1278.7,3251.8,1277.4,3245.6,1277.4z"/>
			</g>
			<path class="st4" d="M3288.2,1318c-4.1,0-7.5-3.4-7.5-7.5c0-20.1-11.8-25.8-11.9-25.8c-3.8-1.6-5.6-6-3.9-9.9
				c1.6-3.8,6.1-5.6,9.9-3.9c0.9,0.4,21,9.4,21,39.6C3295.7,1314.6,3292.4,1318,3288.2,1318z"/>
		</g>
		<g>
			<g>
				<path class="st11" d="M3250.6,1439.7c4.6,7.9,9.1,11.8,13.5,11.8c14.5,0,13.4-20.7,23.1-46.2c0.7-1.7,1.3-3.3,2.1-4.8
					c0,0-11.5-8.5-24.8,7C3253.6,1420.1,3250.6,1439.7,3250.6,1439.7z"/>
				<path class="st4" d="M3264.1,1459c-7.4,0-13.9-5.1-20-15.5c-0.9-1.5-1.2-3.2-0.9-4.9c0.1-0.9,3.5-22,15.6-36
					c8.5-9.9,16.9-11.9,22.4-11.9c7,0,11.6,3.2,12.5,3.8c2.9,2.1,3.8,6,2.3,9.2c-0.6,1.4-1.3,2.8-1.8,4.3
					c-2.9,7.6-4.8,14.8-6.5,21.2C3283.7,1444.5,3279.9,1459,3264.1,1459z M3258.6,1438.3c3.5,5.3,5.5,5.7,5.6,5.7
					c3.6,0,5.3-4.2,9.1-18.6c1.5-5.9,3.3-12.4,5.8-19.4c-3.5,0.9-6.7,3.9-8.8,6.4C3263,1420.6,3259.7,1433,3258.6,1438.3z"/>
			</g>
		</g>
		<g>
			<path class="st4" d="M3341.9,1393.9c-0.7,0-1.4-0.1-2.1-0.3c-4-1.1-6.3-5.3-5.1-9.3c0.9-3,1.7-6.3,2.6-9.7
				c0.6-2.3,1.2-4.5,1.8-6.7c2.4-9,4.7-17.6,4.7-26.2c0-11.8-2.5-17.4-6.9-23.1c-3.3-4.3-8.5-7.5-14.7-9.1c-4-1-6.4-5.1-5.4-9.1
				c1-4,5.1-6.4,9.1-5.4c9.4,2.4,17.5,7.5,22.9,14.5c7.1,9.3,10,18.6,10,32.3c0,10.6-2.6,20.5-5.2,30.1c-0.6,2.2-1.2,4.3-1.7,6.5
				c-0.9,3.6-1.8,7.1-2.7,10.2C3348.2,1391.7,3345.2,1393.9,3341.9,1393.9z"/>
			<path class="st4" d="M3333.2,1419c-0.9,0-1.9-0.2-2.8-0.6c-3.8-1.6-5.7-5.9-4.1-9.8c0.8-2.1,1.7-4.4,2.6-7c1.3-3.9,5.6-6,9.5-4.7
				c3.9,1.3,6,5.6,4.7,9.5c-1,2.8-1.9,5.4-2.9,7.8C3338.9,1417.2,3336.1,1419,3333.2,1419z"/>
		</g>
	</g>
	<g>
		<path class="st4" d="M4086.4,2733.2c-49.5,0-89.7-40.2-89.7-89.7v-154c0-4.1,3.4-7.5,7.5-7.5c4.1,0,7.5,3.4,7.5,7.5v154
			c0,41.2,33.5,74.7,74.7,74.7c41.2,0,74.7-33.5,74.7-74.7V2565c0-4.1,3.4-7.5,7.5-7.5c4.1,0,7.5,3.4,7.5,7.5v78.5
			C4176.1,2692.9,4135.9,2733.2,4086.4,2733.2z"/>
		<g>
			<g>
				<circle class="st7" cx="4168.6" cy="2528.4" r="52.1"/>
				<path class="st4" d="M4168.6,2587.9c-32.8,0-59.6-26.7-59.6-59.6c0-32.9,26.7-59.6,59.6-59.6c32.9,0,59.6,26.7,59.6,59.6
					C4228.2,2561.2,4201.4,2587.9,4168.6,2587.9z M4168.6,2483.8c-24.6,0-44.6,20-44.6,44.6c0,24.6,20,44.6,44.6,44.6
					c24.6,0,44.6-20,44.6-44.6C4213.2,2503.8,4193.2,2483.8,4168.6,2483.8z"/>
			</g>
			<g>
				<path class="st8" d="M4196.8,2528.4c0,15.6-12.6,28.2-28.2,28.2c-15.6,0-28.2-12.6-28.2-28.2c0-15.6,12.6-28.2,28.2-28.2
					C4184.2,2500.2,4196.8,2512.8,4196.8,2528.4z"/>
				<path class="st4" d="M4168.6,2564.1c-19.7,0-35.7-16-35.7-35.7s16-35.7,35.7-35.7s35.7,16,35.7,35.7
					S4188.3,2564.1,4168.6,2564.1z M4168.6,2507.7c-11.4,0-20.7,9.3-20.7,20.7c0,11.4,9.3,20.7,20.7,20.7s20.7-9.3,20.7-20.7
					C4189.3,2517,4180,2507.7,4168.6,2507.7z"/>
			</g>
		</g>
		<path class="st4" d="M4006.7,2417c-115.7,0-209.9-94.2-209.9-209.9c0-13.2,1.2-26.4,3.7-39.3c0.8-4.1,4.7-6.8,8.8-6
			c4.1,0.8,6.7,4.7,6,8.8c-2.3,11.9-3.4,24.2-3.4,36.5c0,107.5,87.4,194.9,194.9,194.9s194.9-87.4,194.9-194.9
			c0-13.2-1.3-26.5-4-39.3c-0.8-4.1,1.8-8,5.8-8.9c4.1-0.8,8,1.8,8.9,5.8c2.8,13.8,4.3,28,4.3,42.3
			C4216.6,2322.9,4122.4,2417,4006.7,2417z"/>
		<g>
			<g>
				<path class="st4" d="M3922.4,2391.1c-4.9,4.9-4.2,12.5,3.3,21l5.5,6.3c12.8,14.6,33.8,38.5,46.6,53.1l5.5,6.3
					c12.8,14.6,33.8,14.6,46.6,0l5.5-6.3c12.8-14.6,33.8-38.5,46.6-53.1l5.5-6.3c7.5-8.5,8.2-16.2,3.3-21
					c-25.7,10.2-54.2,18.4-84.3,18.4C3976.6,2409.5,3948.1,2401.3,3922.4,2391.1z"/>
				<path class="st6" d="M4006.7,2498.7c-11.8,0-22.7-5.1-30.8-14.4l-57.7-65.6c-13-14.8-9.7-28-2.8-34.7c2.8-2.8,7-3.6,10.7-2.2
					c30.4,12.1,56,17.7,80.6,17.7c24.6,0,50.2-5.6,80.6-17.7c3.7-1.5,7.9-0.6,10.7,2.2c6.8,6.8,10.2,19.9-2.8,34.7l-57.7,65.6
					C4029.4,2493.6,4018.5,2498.7,4006.7,2498.7z M3933.6,2405.9l57.3,65.2c4.3,4.9,9.9,7.5,15.8,7.5c5.9,0,11.5-2.7,15.8-7.6
					l57.3-65.2c-26.6,9.2-50.1,13.6-73.1,13.6C3983.7,2419.5,3960.2,2415.2,3933.6,2405.9z"/>
			</g>
		</g>
		<path class="st3" d="M3795.9,2142.1c0-14.9,11.2-22.3,24.9-16.4l33.1,14.2c13.7,5.9,13.7,15.5,0,21.4l-33.1,14.2
			c-13.7,5.9-24.9-1.5-24.9-16.4V2142.1z"/>
		<path class="st3" d="M4220.7,2142.1c0-14.9-11.2-22.3-24.9-16.4l-33.1,14.2c-13.7,5.9-13.7,15.5,0,21.4l33.1,14.2
			c13.7,5.9,24.9-1.5,24.9-16.4V2142.1z"/>
	</g>
	<g>
		<g>
			<path class="st4" d="M4000.9,1876.7h-294.7c-4.1,0-7.5-3.4-7.5-7.5c0-4.1,3.4-7.5,7.5-7.5h294.7c4.1,0,7.5,3.4,7.5,7.5
				C4008.4,1873.4,4005,1876.7,4000.9,1876.7z"/>
			<path class="st4" d="M3813.4,1732.8h-66.3c-4.1,0-7.5-3.4-7.5-7.5s3.4-7.5,7.5-7.5h66.3c4.1,0,7.5,3.4,7.5,7.5
				S3817.5,1732.8,3813.4,1732.8z"/>
			<path class="st4" d="M3933.8,1781.1h-188.8c-4.1,0-7.5-3.4-7.5-7.5s3.4-7.5,7.5-7.5h188.8c4.1,0,7.5,3.4,7.5,7.5
				S3937.9,1781.1,3933.8,1781.1z"/>
			<path class="st4" d="M3803.5,1832.3h-92c-4.1,0-7.5-3.4-7.5-7.5s3.4-7.5,7.5-7.5h92c4.1,0,7.5,3.4,7.5,7.5
				S3807.6,1832.3,3803.5,1832.3z"/>
			<path class="st4" d="M4079.2,1832.3h-232c-4.1,0-7.5-3.4-7.5-7.5s3.4-7.5,7.5-7.5h232c4.1,0,7.5,3.4,7.5,7.5
				S4083.4,1832.3,4079.2,1832.3z"/>
			<path class="st4" d="M4029.3,1732.8h-163.4c-4.1,0-7.5-3.4-7.5-7.5s3.4-7.5,7.5-7.5h163.4c4.1,0,7.5,3.4,7.5,7.5
				S4033.5,1732.8,4029.3,1732.8z"/>
			<path class="st4" d="M4000.9,1690.5h-294.7c-4.1,0-7.5-3.4-7.5-7.5s3.4-7.5,7.5-7.5h294.7c4.1,0,7.5,3.4,7.5,7.5
				S4005,1690.5,4000.9,1690.5z"/>
		</g>
		<g>
			<g>
				<g>
					<path class="st5" d="M3687.7,1666.3c-31.6-33.3-38.3-49.2-38.3-49.2s-7.4,18.2-38.3,49.2c-32.8,32.8-73.9,73.8-73.9,122.6
						c0,62,50.2,100.1,112.2,100.1c62,0,112.2-38.1,112.2-100.1C3761.6,1740.2,3719.6,1700,3687.7,1666.3z"/>
					<path class="st4" d="M3649.4,1896.5c-32.6,0-62.5-10.2-84.2-28.6c-23.2-19.8-35.5-47.1-35.5-79c0-51.8,42.1-93.9,75.9-127.8
						c29.3-29.3,36.8-46.7,36.8-46.9c1.2-2.8,3.9-4.6,6.9-4.6c0,0,0,0,0,0c3,0,5.7,1.8,6.9,4.5c0,0.1,7.1,15.6,36.9,47
						c2.2,2.4,4.5,4.7,6.8,7.2c30.8,32.2,69.1,72.3,69.1,120.6c0,31.9-12.3,59.2-35.5,79C3711.9,1886.4,3682,1896.5,3649.4,1896.5z
						 M3649.5,1632c-5.8,8.9-16,22.4-33.2,39.6c-32,32-71.7,71.7-71.7,117.3c0,54.5,43.1,92.6,104.7,92.6
						c61.6,0,104.7-38.1,104.7-92.6c0-42.3-34.5-78.4-64.9-110.2c-2.3-2.4-4.6-4.8-6.9-7.2C3665.3,1653.7,3655.3,1640.5,3649.5,1632
						z"/>
				</g>
				<g>
					<path class="st4" d="M3717.6,1839.1c-1.8,0-3.7-0.7-5.1-2c-3-2.8-3.2-7.6-0.3-10.6c10.1-10.7,15.4-24.8,15.4-40.7
						c0-26.1-20-49.4-40.4-71c-2.8-3-2.7-7.8,0.3-10.6c3-2.8,7.8-2.7,10.6,0.3c22.5,23.8,44.5,49.8,44.5,81.3
						c0,19.8-6.7,37.4-19.4,50.9C3721.6,1838.3,3719.6,1839.1,3717.6,1839.1z"/>
					<path class="st4" d="M3692.6,1857.2c-2.8,0-5.5-1.6-6.8-4.3c-1.8-3.7-0.2-8.2,3.6-10c3-1.4,5.8-3,8.5-4.8
						c3.5-2.3,8.1-1.4,10.4,2.1c2.3,3.4,1.4,8.1-2.1,10.4c-3.3,2.2-6.8,4.2-10.4,5.9C3694.7,1857,3693.6,1857.2,3692.6,1857.2z"/>
				</g>
				<circle class="st6" cx="3649.4" cy="1783.1" r="63.5"/>
			</g>
			<path class="st3" d="M3649.4,1762.5c-21.3-17.3-43.5-0.2-36.6,24.3c5.8,20.7,36.6,24.6,36.6,36.6c0-12,30.8-15.9,36.6-36.6
				C3692.9,1762.3,3670.6,1745.1,3649.4,1762.5z"/>
		</g>
	</g>
	<g>
		<g>
			<g>
				<path class="st5" d="M939.4,754.5H1941c113,0,204.6,91.6,204.6,204.6c0,113-91.6,204.6-204.6,204.6H939.4
					c-113,0-204.6-91.6-204.6-204.6C734.8,846.1,826.4,754.5,939.4,754.5z"/>
				<path class="st4" d="M1941,1171.2H939.4c-116.9,0-212.1-95.1-212.1-212.1S822.5,747,939.4,747H1941
					c116.9,0,212.1,95.1,212.1,212.1S2058,1171.2,1941,1171.2z M939.4,762c-108.7,0-197.1,88.4-197.1,197.1s88.4,197.1,197.1,197.1
					H1941c108.7,0,197.1-88.4,197.1-197.1S2049.7,762,1941,762H939.4z"/>
			</g>
			<g>
				<path class="st6" d="M1085.6,1033.4h-25.6v-65.6H994v65.6h-25.7V885.6H994v61.5h66.1v-61.5h25.6V1033.4z"/>
				<path class="st6" d="M1241.2,963.4c0,14.5-2.5,27.2-7.5,38.1c-5,10.9-12.2,19.3-21.5,25.2c-9.3,5.9-20,8.8-32.1,8.8
					c-12,0-22.7-2.9-32-8.8c-9.4-5.9-16.6-14.2-21.7-25c-5.1-10.8-7.7-23.3-7.8-37.5v-8.3c0-14.4,2.6-27.1,7.7-38.2
					c5.1-11,12.3-19.5,21.6-25.3c9.3-5.9,20-8.8,32-8.8c12,0,22.7,2.9,32,8.7c9.3,5.8,16.5,14.1,21.6,25c5.1,10.9,7.6,23.5,7.7,37.9
					V963.4z M1215.5,955.7c0-16.4-3.1-28.9-9.3-37.7c-6.2-8.7-15-13.1-26.3-13.1c-11.1,0-19.8,4.3-26,13c-6.3,8.7-9.5,21-9.6,36.9
					v8.5c0,16.2,3.2,28.8,9.5,37.7c6.3,8.9,15.1,13.3,26.3,13.3c11.4,0,20.1-4.3,26.2-13c6.1-8.7,9.2-21.3,9.2-38V955.7z"/>
				<path class="st6" d="M1351.3,995.3c0-6.5-2.3-11.5-6.9-15c-4.6-3.5-12.8-7.1-24.7-10.7c-11.9-3.6-21.4-7.6-28.4-12
					c-13.5-8.5-20.2-19.5-20.2-33.1c0-11.9,4.9-21.7,14.6-29.4c9.7-7.7,22.3-11.6,37.8-11.6c10.3,0,19.5,1.9,27.5,5.7
					c8.1,3.8,14.4,9.2,19,16.2c4.6,7,6.9,14.8,6.9,23.3h-25.6c0-7.6-2.4-13.6-7.3-18c-4.8-4.3-11.8-6.5-20.8-6.5
					c-8.4,0-14.9,1.8-19.5,5.4c-4.6,3.6-7,8.6-7,15c0,5.4,2.5,9.9,7.5,13.5c5,3.6,13.3,7.1,24.8,10.5c11.5,3.4,20.7,7.3,27.7,11.7
					c7,4.4,12.1,9.4,15.3,15c3.2,5.7,4.9,12.3,4.9,19.8c0,12.3-4.7,22.1-14.2,29.4c-9.4,7.3-22.2,10.9-38.4,10.9
					c-10.7,0-20.5-2-29.5-5.9c-9-4-15.9-9.4-20.9-16.4c-5-7-7.5-15.1-7.5-24.4h25.7c0,8.4,2.8,14.9,8.3,19.5
					c5.5,4.6,13.5,6.9,23.8,6.9c8.9,0,15.6-1.8,20.1-5.4C1349.1,1006.1,1351.3,1001.3,1351.3,995.3z"/>
				<path class="st6" d="M1432.5,978.6v54.8h-25.7V885.6h56.5c16.5,0,29.6,4.3,39.3,12.9c9.7,8.6,14.6,20,14.6,34.1
					c0,14.5-4.8,25.8-14.3,33.8c-9.5,8.1-22.8,12.1-39.9,12.1H1432.5z M1432.5,957.9h30.9c9.1,0,16.1-2.1,20.9-6.4
					c4.8-4.3,7.2-10.5,7.2-18.6c0-8-2.4-14.4-7.3-19.1c-4.9-4.8-11.6-7.2-20.1-7.4h-31.6V957.9z"/>
				<path class="st6" d="M1574.1,1033.4h-25.6V885.6h25.6V1033.4z"/>
				<path class="st6" d="M1716.8,906.3h-46.1v127.1h-25.5V906.3h-45.7v-20.7h117.2V906.3z"/>
				<path class="st6" d="M1814.1,999h-57.2l-12,34.4h-26.7l55.8-147.8h23l55.9,147.8h-26.8L1814.1,999z M1764,978.3h42.8l-21.4-61.3
					L1764,978.3z"/>
				<path class="st6" d="M1902.7,1012.7h67.1v20.7H1877V885.6h25.7V1012.7z"/>
			</g>
			<path class="st4" d="M1857.8,1120.9h-89.7c-4.1,0-7.5-3.4-7.5-7.5s3.4-7.5,7.5-7.5h89.7c4.1,0,7.5,3.4,7.5,7.5
				S1861.9,1120.9,1857.8,1120.9z"/>
			<path class="st4" d="M1702.7,1120.9h-517.6c-4.1,0-7.5-3.4-7.5-7.5s3.4-7.5,7.5-7.5h517.6c4.1,0,7.5,3.4,7.5,7.5
				S1706.8,1120.9,1702.7,1120.9z"/>
			<path class="st4" d="M1611.4,808.5h-469.2c-4.1,0-7.5-3.4-7.5-7.5c0-4.1,3.4-7.5,7.5-7.5h469.2c4.1,0,7.5,3.4,7.5,7.5
				C1618.9,805.1,1615.5,808.5,1611.4,808.5z"/>
			<path class="st4" d="M1082.6,808.5h-99.5c-4.1,0-7.5-3.4-7.5-7.5c0-4.1,3.4-7.5,7.5-7.5h99.5c4.1,0,7.5,3.4,7.5,7.5
				C1090.1,805.1,1086.7,808.5,1082.6,808.5z"/>
		</g>
		<path class="st4" d="M1440.2,1407.4c-30.5,0-60.9-10.7-84.1-32.1l-223.3-206.1c-3-2.8-3.2-7.6-0.4-10.6c2.8-3,7.6-3.2,10.6-0.4
			l223.3,206.1c40.8,37.6,107.1,37.6,147.8,0l223.3-206.1c3-2.8,7.8-2.6,10.6,0.4c2.8,3,2.6,7.8-0.4,10.6l-223.3,206.1
			C1501.1,1396.7,1470.7,1407.4,1440.2,1407.4z"/>
		<path class="st4" d="M1602.3,1300.7h-321c-4.1,0-7.5-3.4-7.5-7.5s3.4-7.5,7.5-7.5h321c4.1,0,7.5,3.4,7.5,7.5
			S1606.4,1300.7,1602.3,1300.7z"/>
		<path class="st4" d="M1973.3,2274.1c-63.9,0-115.8-52-115.8-115.8v-503c0-55.6-45.2-100.8-100.8-100.8
			c-55.6,0-100.8,45.2-100.8,100.8v169.7c0,63.9-52,115.8-115.8,115.8c-63.9,0-115.8-52-115.8-115.8v-420.6c0-4.1,3.4-7.5,7.5-7.5
			c4.1,0,7.5,3.4,7.5,7.5v420.6c0,55.6,45.2,100.8,100.8,100.8c55.6,0,100.8-45.2,100.8-100.8v-169.7c0-63.9,52-115.8,115.8-115.8
			c63.9,0,115.8,52,115.8,115.8v503c0,55.6,45.2,100.8,100.8,100.8c55.6,0,100.8-45.2,100.8-100.8v-284.2c0-4.1,3.4-7.5,7.5-7.5
			c4.1,0,7.5,3.4,7.5,7.5v284.2C2089.1,2222.1,2037.2,2274.1,1973.3,2274.1z"/>
		<g>
			<g>
				<path class="st5" d="M2209.8,1853.9c0,67.4-54.7,122.1-122.1,122.1c-67.4,0-122.1-54.7-122.1-122.1
					c0-67.4,54.6-122.1,122.1-122.1C2155.2,1731.8,2209.8,1786.5,2209.8,1853.9z"/>
				<path class="st4" d="M2087.8,1983.5c-71.4,0-129.6-58.1-129.6-129.6c0-71.4,58.1-129.6,129.6-129.6
					c71.4,0,129.6,58.1,129.6,129.6C2217.3,1925.3,2159.2,1983.5,2087.8,1983.5z M2087.8,1739.3c-63.2,0-114.6,51.4-114.6,114.6
					c0,63.2,51.4,114.6,114.6,114.6c63.2,0,114.6-51.4,114.6-114.6C2202.3,1790.7,2150.9,1739.3,2087.8,1739.3z"/>
			</g>
			<g>
				<path class="st6" d="M2178.1,1853.9c0,49.9-40.5,90.3-90.3,90.3c-49.9,0-90.3-40.4-90.3-90.3c0-49.9,40.4-90.3,90.3-90.3
					C2137.6,1763.6,2178.1,1804,2178.1,1853.9z"/>
				<path class="st4" d="M2087.8,1951.7c-53.9,0-97.8-43.9-97.8-97.8c0-53.9,43.9-97.8,97.8-97.8c53.9,0,97.8,43.9,97.8,97.8
					C2185.6,1907.8,2141.7,1951.7,2087.8,1951.7z M2087.8,1771.1c-45.7,0-82.8,37.1-82.8,82.8c0,45.7,37.2,82.8,82.8,82.8
					c45.7,0,82.8-37.1,82.8-82.8C2170.6,1808.2,2133.4,1771.1,2087.8,1771.1z"/>
			</g>
		</g>
		<path class="st5" d="M2087.8,1821.6c29.6-24.1,60.5-0.2,51,33.9c-8.1,28.8-51,34.3-51,51c0-16.7-42.9-22.1-51-51
			C2027.2,1821.4,2058.2,1797.4,2087.8,1821.6z"/>
	</g>
	<g>
		<path class="st7" d="M3251.6,2734.3v9.4c0,0.7-0.3,1.3-0.8,1.7l-16.2,13.3c-2.3,1.9-4.3,6.1-4.3,9.1v85.9c0,2.4,2,4.4,4.4,4.4
			h92.7c2.4,0,4.4-2,4.4-4.4v-85.9c0-3-2-7.4-4.2-9.4l-14.6-13.2c0,0-0.1-0.1-0.1-0.1c-0.4-0.4-0.7-1-0.7-1.6v-9.2H3251.6z"/>
		<g>
			<g>
				<path class="st3" d="M3324.1,2723.3c0,4.9-4,8.8-8.8,8.8H3247c-4.9,0-8.8-4-8.8-8.8v-2.2c0-4.9,3.9-8.8,8.8-8.8h68.4
					c4.9,0,8.8,4,8.8,8.8V2723.3z"/>
				<path class="st4" d="M3315.3,2734.3H3247c-6.1,0-11-4.9-11-11v-2.2c0-6.1,4.9-11,11-11h68.4c6.1,0,11,4.9,11,11v2.2
					C3326.3,2729.3,3321.4,2734.3,3315.3,2734.3z M3247,2714.4c-3.7,0-6.6,3-6.6,6.6v2.2c0,3.7,3,6.6,6.6,6.6h68.4
					c3.7,0,6.6-3,6.6-6.6v-2.2c0-3.7-3-6.6-6.6-6.6H3247z"/>
			</g>
		</g>
		<g>
			<path class="st8" d="M3308.3,2862.4h-70.7c-4.9,0-8.8-4-8.8-8.8v-80.3c0-1.2,1-2.2,2.2-2.2h68.5c6.1,0,11,4.9,11,11v78.1
				C3310.5,2861.4,3309.6,2862.4,3308.3,2862.4z"/>
			<path class="st4" d="M3308.3,2864.9h-70.7c-6.2,0-11.3-5.1-11.3-11.3v-80.3c0-2.6,2.1-4.7,4.7-4.7h68.5c7.4,0,13.5,6.1,13.5,13.5
				v78.1C3313,2862.8,3310.9,2864.9,3308.3,2864.9z M3231.4,2773.6v80c0,3.5,2.8,6.3,6.3,6.3h70.4v-77.8c0-4.7-3.8-8.5-8.5-8.5
				H3231.4z"/>
		</g>
		<g>
			<g>
				<path class="st3" d="M3271.6,2791.2l-23.2,20.2c5.6,6.4,15.3,7.1,21.7,1.5C3276.5,2807.4,3277.2,2797.6,3271.6,2791.2z"/>
				<path class="st4" d="M3260,2819.4L3260,2819.4c-5.2,0-10.2-2.3-13.6-6.2c-0.5-0.5-0.7-1.2-0.6-2c0-0.7,0.4-1.4,0.9-1.8
					l23.2-20.2c1.1-1,2.8-0.9,3.8,0.3c3.2,3.6,4.7,8.3,4.4,13.1c-0.3,4.8-2.5,9.2-6.2,12.4C3268.6,2817.9,3264.4,2819.4,3260,2819.4
					z M3252.4,2811.5c2.2,1.6,4.8,2.5,7.6,2.5l0,0c3.1,0,6-1.1,8.4-3.1c2.6-2.2,4.1-5.3,4.3-8.7c0.2-2.5-0.4-4.9-1.6-7
					L3252.4,2811.5z"/>
			</g>
			<g>
				<path class="st3" d="M3249.9,2789.7c-6.4,5.6-7.1,15.3-1.5,21.7l23.2-20.2C3266,2784.8,3256.3,2784.1,3249.9,2789.7z"/>
				<path class="st4" d="M3248.4,2814.2c-0.1,0-0.1,0-0.2,0c-0.7,0-1.4-0.4-1.8-0.9c-6.6-7.5-5.8-19,1.8-25.5
					c3.3-2.9,7.5-4.5,11.9-4.5c5.2,0,10.2,2.3,13.6,6.2c1,1.1,0.9,2.8-0.3,3.8l-23.2,20.3C3249.6,2813.9,3249,2814.2,3248.4,2814.2z
					 M3260,2788.6c-3.1,0-6,1.1-8.4,3.1c-4.6,4-5.6,10.6-2.8,15.7l18.7-16.3C3265.4,2789.5,3262.8,2788.6,3260,2788.6z"/>
			</g>
		</g>
		<path class="st4" d="M3327.5,2862.4h-92.7c-4.9,0-8.8-4-8.8-8.8v-85.9c0-4.3,2.6-9.8,5.9-12.5l15.4-12.6v-10.5
			c0-1.2,1-2.2,2.2-2.2h65.2c1.2,0,2.2,1,2.2,2.2v10.4l13.9,12.5c3.2,2.9,5.6,8.4,5.6,12.7v85.9
			C3336.3,2858.4,3332.4,2862.4,3327.5,2862.4z M3251.6,2734.3v9.4c0,0.7-0.3,1.3-0.8,1.7l-16.2,13.3c-2.3,1.9-4.3,6.1-4.3,9.1v85.9
			c0,2.4,2,4.4,4.4,4.4h92.7c2.4,0,4.4-2,4.4-4.4v-85.9c0-3-2-7.4-4.2-9.4l-14.6-13.2c0,0-0.1-0.1-0.1-0.1c-0.4-0.4-0.7-1-0.7-1.6
			v-9.2H3251.6z"/>
		<path class="st4" d="M3265.1,2841h-27c-1.2,0-2.2-1-2.2-2.2c0-1.2,1-2.2,2.2-2.2h27c1.2,0,2.2,1,2.2,2.2
			C3267.3,2840,3266.3,2841,3265.1,2841z"/>
		<path class="st4" d="M3281.9,2841h-6c-1.2,0-2.2-1-2.2-2.2c0-1.2,1-2.2,2.2-2.2h6c1.2,0,2.2,1,2.2,2.2
			C3284,2840,3283.1,2841,3281.9,2841z"/>
		<path class="st4" d="M3281.9,2850.3h-43.7c-1.2,0-2.2-1-2.2-2.2c0-1.2,1-2.2,2.2-2.2h43.7c1.2,0,2.2,1,2.2,2.2
			C3284,2849.3,3283.1,2850.3,3281.9,2850.3z"/>
		<path class="st4" d="M3254.1,2830.9h-15.9c-1.2,0-2.2-1-2.2-2.2c0-1.2,1-2.2,2.2-2.2h15.9c1.2,0,2.2,1,2.2,2.2
			C3256.2,2829.9,3255.3,2830.9,3254.1,2830.9z"/>
	</g>
</g>
</svg>
